{
	"asset":{
		"generator":"Khronos glTF Blender I/O v4.3.47",
		"version":"2.0"
	},
	"scene":0,
	"scenes":[
		{
			"name":"Scene",
			"nodes":[
				0,
				1,
				2,
				3,
				4,
				5
			]
		}
	],
	"nodes":[
		{
			"mesh":0,
			"name":"\u7403",
			"rotation":[
				0,
				-0.9187753200531006,
				0,
				0.39478087425231934
			],
			"scale":[
				2.360661268234253,
				2.360661268234253,
				2.360661268234253
			]
		},
		{
			"mesh":1,
			"name":"\u5186\u9310",
			"translation":[
				0,
				-3.43927001953125,
				0
			]
		},
		{
			"mesh":2,
			"name":"\u30c8\u30fc\u30e9\u30b9",
			"rotation":[
				0,
				0,
				-0.7071068286895752,
				0.7071068286895752
			],
			"scale":[
				2.821559429168701,
				2.821559429168701,
				2.821559429168701
			]
		},
		{
			"mesh":3,
			"name":"\u5186\u67f1",
			"rotation":[
				-0.20278729498386383,
				0,
				0,
				0.97922283411026
			],
			"scale":[
				0.09582250565290451,
				3.2042222023010254,
				0.09582250565290451
			]
		},
		{
			"mesh":4,
			"name":"ICO\u7403",
			"scale":[
				0.29282212257385254,
				0.29282212257385254,
				0.29282212257385254
			],
			"translation":[
				0,
				-2.9712986946105957,
				1.320073127746582
			]
		},
		{
			"mesh":5,
			"name":"ICO\u7403.001",
			"scale":[
				0.23838916420936584,
				0.23838916420936584,
				0.23838916420936584
			],
			"translation":[
				0,
				2.9920895099639893,
				-1.2682832479476929
			]
		}
	],
	"materials":[
		{
			"doubleSided":true,
			"name":"\u30de\u30c6\u30ea\u30a2\u30eb.001",
			"pbrMetallicRoughness":{
				"baseColorTexture":{
					"index":0
				},
				"metallicFactor":0,
				"roughnessFactor":0.5
			}
		},
		{
			"doubleSided":true,
			"name":"\u30de\u30c6\u30ea\u30a2\u30eb",
			"pbrMetallicRoughness":{
				"baseColorFactor":[
					0.8001810312271118,
					0.36966386437416077,
					0.20000624656677246,
					1
				],
				"metallicFactor":0.9212598204612732,
				"roughnessFactor":0.5
			}
		},
		{
			"doubleSided":true,
			"name":"\u30de\u30c6\u30ea\u30a2\u30eb.002",
			"pbrMetallicRoughness":{
				"baseColorFactor":[
					0.800481915473938,
					0.4583318829536438,
					0.056768134236335754,
					1
				],
				"metallicFactor":0.960629940032959,
				"roughnessFactor":0.5
			}
		}
	],
	"meshes":[
		{
			"name":"\u7403",
			"primitives":[
				{
					"attributes":{
						"POSITION":0,
						"NORMAL":1,
						"TEXCOORD_0":2
					},
					"indices":3,
					"material":0
				}
			]
		},
		{
			"name":"\u5186\u9310",
			"primitives":[
				{
					"attributes":{
						"POSITION":4,
						"NORMAL":5,
						"TEXCOORD_0":6
					},
					"indices":7,
					"material":1
				}
			]
		},
		{
			"name":"\u30c8\u30fc\u30e9\u30b9",
			"primitives":[
				{
					"attributes":{
						"POSITION":8,
						"NORMAL":9,
						"TEXCOORD_0":10
					},
					"indices":11,
					"material":1
				}
			]
		},
		{
			"name":"\u5186\u67f1",
			"primitives":[
				{
					"attributes":{
						"POSITION":12,
						"NORMAL":13,
						"TEXCOORD_0":14
					},
					"indices":15,
					"material":1
				}
			]
		},
		{
			"name":"ICO\u7403",
			"primitives":[
				{
					"attributes":{
						"POSITION":16,
						"NORMAL":17,
						"TEXCOORD_0":18
					},
					"indices":19,
					"material":2
				}
			]
		},
		{
			"name":"ICO\u7403.001",
			"primitives":[
				{
					"attributes":{
						"POSITION":20,
						"NORMAL":21,
						"TEXCOORD_0":22
					},
					"indices":19,
					"material":2
				}
			]
		}
	],
	"textures":[
		{
			"sampler":0,
			"source":0
		}
	],
	"images":[
		{
			"mimeType":"image/png",
			"name":"Gemini_Generated_Image_vaswq9vaswq9vasw",
			"uri":"Gemini_Generated_Image_vaswq9vaswq9vasw.png"
		}
	],
	"accessors":[
		{
			"bufferView":0,
			"componentType":5126,
			"count":2141,
			"max":[
				0.9872310161590576,
				0.9975767135620117,
				0.9872307181358337
			],
			"min":[
				-0.9872305393218994,
				-0.9975767135620117,
				-0.9872310161590576
			],
			"type":"VEC3"
		},
		{
			"bufferView":1,
			"componentType":5126,
			"count":2141,
			"type":"VEC3"
		},
		{
			"bufferView":2,
			"componentType":5126,
			"count":2141,
			"type":"VEC2"
		},
		{
			"bufferView":3,
			"componentType":5123,
			"count":11904,
			"type":"SCALAR"
		},
		{
			"bufferView":4,
			"componentType":5126,
			"count":65,
			"max":[
				1,
				1,
				1
			],
			"min":[
				-1,
				-1,
				-1
			],
			"type":"VEC3"
		},
		{
			"bufferView":5,
			"componentType":5126,
			"count":65,
			"type":"VEC3"
		},
		{
			"bufferView":6,
			"componentType":5126,
			"count":65,
			"type":"VEC2"
		},
		{
			"bufferView":7,
			"componentType":5123,
			"count":186,
			"type":"SCALAR"
		},
		{
			"bufferView":8,
			"componentType":5126,
			"count":1225,
			"max":[
				1.0257269144058228,
				0.028660258278250694,
				0.39365166425704956
			],
			"min":[
				-0.9503582119941711,
				-0.028660258278250694,
				-1.0257269144058228
			],
			"type":"VEC3"
		},
		{
			"bufferView":9,
			"componentType":5126,
			"count":1225,
			"type":"VEC3"
		},
		{
			"bufferView":10,
			"componentType":5126,
			"count":1225,
			"type":"VEC2"
		},
		{
			"bufferView":11,
			"componentType":5123,
			"count":6912,
			"type":"SCALAR"
		},
		{
			"bufferView":12,
			"componentType":5126,
			"count":130,
			"max":[
				1,
				1,
				1
			],
			"min":[
				-1,
				-1,
				-1
			],
			"type":"VEC3"
		},
		{
			"bufferView":13,
			"componentType":5126,
			"count":130,
			"type":"VEC3"
		},
		{
			"bufferView":14,
			"componentType":5126,
			"count":130,
			"type":"VEC2"
		},
		{
			"bufferView":15,
			"componentType":5123,
			"count":372,
			"type":"SCALAR"
		},
		{
			"bufferView":16,
			"componentType":5126,
			"count":240,
			"max":[
				0.9510578513145447,
				1,
				0.9999999403953552
			],
			"min":[
				-0.9510578513145447,
				-1,
				-0.9999999403953552
			],
			"type":"VEC3"
		},
		{
			"bufferView":17,
			"componentType":5126,
			"count":240,
			"type":"VEC3"
		},
		{
			"bufferView":18,
			"componentType":5126,
			"count":240,
			"type":"VEC2"
		},
		{
			"bufferView":19,
			"componentType":5123,
			"count":240,
			"type":"SCALAR"
		},
		{
			"bufferView":20,
			"componentType":5126,
			"count":240,
			"max":[
				0.9510578513145447,
				1,
				0.9999999403953552
			],
			"min":[
				-0.9510578513145447,
				-1,
				-0.9999999403953552
			],
			"type":"VEC3"
		},
		{
			"bufferView":21,
			"componentType":5126,
			"count":240,
			"type":"VEC3"
		},
		{
			"bufferView":22,
			"componentType":5126,
			"count":240,
			"type":"VEC2"
		}
	],
	"bufferViews":[
		{
			"buffer":0,
			"byteLength":25692,
			"byteOffset":0,
			"target":34962
		},
		{
			"buffer":0,
			"byteLength":25692,
			"byteOffset":25692,
			"target":34962
		},
		{
			"buffer":0,
			"byteLength":17128,
			"byteOffset":51384,
			"target":34962
		},
		{
			"buffer":0,
			"byteLength":23808,
			"byteOffset":68512,
			"target":34963
		},
		{
			"buffer":0,
			"byteLength":780,
			"byteOffset":92320,
			"target":34962
		},
		{
			"buffer":0,
			"byteLength":780,
			"byteOffset":93100,
			"target":34962
		},
		{
			"buffer":0,
			"byteLength":520,
			"byteOffset":93880,
			"target":34962
		},
		{
			"buffer":0,
			"byteLength":372,
			"byteOffset":94400,
			"target":34963
		},
		{
			"buffer":0,
			"byteLength":14700,
			"byteOffset":94772,
			"target":34962
		},
		{
			"buffer":0,
			"byteLength":14700,
			"byteOffset":109472,
			"target":34962
		},
		{
			"buffer":0,
			"byteLength":9800,
			"byteOffset":124172,
			"target":34962
		},
		{
			"buffer":0,
			"byteLength":13824,
			"byteOffset":133972,
			"target":34963
		},
		{
			"buffer":0,
			"byteLength":1560,
			"byteOffset":147796,
			"target":34962
		},
		{
			"buffer":0,
			"byteLength":1560,
			"byteOffset":149356,
			"target":34962
		},
		{
			"buffer":0,
			"byteLength":1040,
			"byteOffset":150916,
			"target":34962
		},
		{
			"buffer":0,
			"byteLength":744,
			"byteOffset":151956,
			"target":34963
		},
		{
			"buffer":0,
			"byteLength":2880,
			"byteOffset":152700,
			"target":34962
		},
		{
			"buffer":0,
			"byteLength":2880,
			"byteOffset":155580,
			"target":34962
		},
		{
			"buffer":0,
			"byteLength":1920,
			"byteOffset":158460,
			"target":34962
		},
		{
			"buffer":0,
			"byteLength":480,
			"byteOffset":160380,
			"target":34963
		},
		{
			"buffer":0,
			"byteLength":2880,
			"byteOffset":160860,
			"target":34962
		},
		{
			"buffer":0,
			"byteLength":2880,
			"byteOffset":163740,
			"target":34962
		},
		{
			"buffer":0,
			"byteLength":1920,
			"byteOffset":166620,
			"target":34962
		}
	],
	"samplers":[
		{
			"magFilter":9729,
			"minFilter":9987
		}
	],
	"buffers":[
		{
			"byteLength":168540,
			"uri":"earth.bin"
		}
	]
}
