{
	"asset":{
		"generator":"Khronos glTF Blender I/O v5.0.21",
		"version":"2.0"
	},
	"scene":0,
	"scenes":[
		{
			"name":"Scene",
			"nodes":[
				0
			]
		}
	],
	"nodes":[
		{
			"mesh":0,
			"name":"Penguin",
			"scale":[
				1.0006967782974243,
				1.0006967782974243,
				1.0006967782974243
			]
		}
	],
	"materials":[
		{
			"doubleSided":true,
			"name":"Material.001",
			"pbrMetallicRoughness":{
				"baseColorFactor":[
					0,
					0,
					0,
					1
				],
				"metallicFactor":0,
				"roughnessFactor":0.7687942981719971
			}
		},
		{
			"doubleSided":true,
			"name":"\u30de\u30c6\u30ea\u30a2\u30eb",
			"pbrMetallicRoughness":{
				"baseColorFactor":[
					0.800000011920929,
					0.800000011920929,
					0.800000011920929,
					1
				],
				"metallicFactor":0,
				"roughnessFactor":0.699999988079071
			}
		},
		{
			"doubleSided":true,
			"name":"\u30de\u30c6\u30ea\u30a2\u30eb.001",
			"pbrMetallicRoughness":{
				"baseColorFactor":[
					1,
					0.44441157579421997,
					0.0913669615983963,
					1
				],
				"metallicFactor":0,
				"roughnessFactor":0.699999988079071
			}
		}
	],
	"meshes":[
		{
			"name":"Cube.001",
			"primitives":[
				{
					"attributes":{
						"POSITION":0,
						"NORMAL":1,
						"TEXCOORD_0":2
					},
					"indices":3,
					"material":0
				},
				{
					"attributes":{
						"POSITION":4,
						"NORMAL":5,
						"TEXCOORD_0":6
					},
					"indices":7,
					"material":1
				},
				{
					"attributes":{
						"POSITION":8,
						"NORMAL":9,
						"TEXCOORD_0":10
					},
					"indices":11,
					"material":2
				}
			]
		}
	],
	"accessors":[
		{
			"bufferView":0,
			"componentType":5126,
			"count":585,
			"max":[
				1.302030324935913,
				2.4318180084228516,
				1.2385450601577759
			],
			"min":[
				-1.888920545578003,
				-1.844541072845459,
				-1.238545298576355
			],
			"type":"VEC3"
		},
		{
			"bufferView":1,
			"componentType":5126,
			"count":585,
			"type":"VEC3"
		},
		{
			"bufferView":2,
			"componentType":5126,
			"count":585,
			"type":"VEC2"
		},
		{
			"bufferView":3,
			"componentType":5123,
			"count":942,
			"type":"SCALAR"
		},
		{
			"bufferView":4,
			"componentType":5126,
			"count":182,
			"max":[
				1.0025923252105713,
				1.8050155639648438,
				1.173736810684204
			],
			"min":[
				-1.0188186168670654,
				-1.7779245376586914,
				-1.1737370491027832
			],
			"type":"VEC3"
		},
		{
			"bufferView":5,
			"componentType":5126,
			"count":182,
			"type":"VEC3"
		},
		{
			"bufferView":6,
			"componentType":5126,
			"count":182,
			"type":"VEC2"
		},
		{
			"bufferView":7,
			"componentType":5123,
			"count":282,
			"type":"SCALAR"
		},
		{
			"bufferView":8,
			"componentType":5126,
			"count":72,
			"max":[
				0.7485194206237793,
				-1.5220932960510254,
				0.6002505421638489
			],
			"min":[
				-0.15499892830848694,
				-1.9046971797943115,
				-0.6002506613731384
			],
			"type":"VEC3"
		},
		{
			"bufferView":9,
			"componentType":5126,
			"count":72,
			"type":"VEC3"
		},
		{
			"bufferView":10,
			"componentType":5126,
			"count":72,
			"type":"VEC2"
		},
		{
			"bufferView":11,
			"componentType":5123,
			"count":108,
			"type":"SCALAR"
		}
	],
	"bufferViews":[
		{
			"buffer":0,
			"byteLength":7020,
			"byteOffset":0,
			"target":34962
		},
		{
			"buffer":0,
			"byteLength":7020,
			"byteOffset":7020,
			"target":34962
		},
		{
			"buffer":0,
			"byteLength":4680,
			"byteOffset":14040,
			"target":34962
		},
		{
			"buffer":0,
			"byteLength":1884,
			"byteOffset":18720,
			"target":34963
		},
		{
			"buffer":0,
			"byteLength":2184,
			"byteOffset":20604,
			"target":34962
		},
		{
			"buffer":0,
			"byteLength":2184,
			"byteOffset":22788,
			"target":34962
		},
		{
			"buffer":0,
			"byteLength":1456,
			"byteOffset":24972,
			"target":34962
		},
		{
			"buffer":0,
			"byteLength":564,
			"byteOffset":26428,
			"target":34963
		},
		{
			"buffer":0,
			"byteLength":864,
			"byteOffset":26992,
			"target":34962
		},
		{
			"buffer":0,
			"byteLength":864,
			"byteOffset":27856,
			"target":34962
		},
		{
			"buffer":0,
			"byteLength":576,
			"byteOffset":28720,
			"target":34962
		},
		{
			"buffer":0,
			"byteLength":216,
			"byteOffset":29296,
			"target":34963
		}
	],
	"buffers":[
		{
			"byteLength":29512,
			"uri":"penguin.bin"
		}
	]
}
