{
	"asset":{
		"generator":"Khronos glTF Blender I/O v4.3.47",
		"version":"2.0"
	},
	"scene":0,
	"scenes":[
		{
			"name":"Scene",
			"nodes":[
				0,
				1,
				2,
				3,
				4,
				6,
				7,
				8,
				9,
				10,
				11,
				12,
				13,
				14,
				15,
				16
			]
		}
	],
	"nodes":[
		{
			"mesh":0,
			"name":"\u7acb\u65b9\u4f53",
			"scale":[
				1,
				0.07629135996103287,
				1
			]
		},
		{
			"mesh":1,
			"name":"\u5186\u67f1",
			"scale":[
				-0.1459331512451172,
				-0.025066275149583817,
				-0.1459331512451172
			],
			"translation":[
				0.7018427848815918,
				-0.1005200743675232,
				0.6986778974533081
			]
		},
		{
			"mesh":2,
			"name":"\u5186\u67f1.001",
			"scale":[
				-0.1459331512451172,
				-0.025066275149583817,
				-0.1459331512451172
			],
			"translation":[
				-0.6986780166625977,
				-0.1005200743675232,
				0.6986778974533081
			]
		},
		{
			"mesh":3,
			"name":"\u5186\u67f1.002",
			"scale":[
				-0.1459331512451172,
				-0.025066275149583817,
				-0.1459331512451172
			],
			"translation":[
				-0.6960405111312866,
				-0.1005200743675232,
				-0.7018427848815918
			]
		},
		{
			"mesh":4,
			"name":"\u5186\u67f1.003",
			"scale":[
				-0.1459331512451172,
				-0.025066275149583817,
				-0.1459331512451172
			],
			"translation":[
				0.6992052793502808,
				-0.1005200743675232,
				-0.7018427848815918
			]
		},
		{
			"mesh":5,
			"name":"\u5186.001",
			"scale":[
				0.44207286834716797,
				1.4092367887496948,
				0.44207286834716797
			],
			"translation":[
				0,
				-0.004727937281131744,
				0
			]
		},
		{
			"children":[
				5
			],
			"mesh":6,
			"name":"\u5186",
			"scale":[
				0.8070863485336304,
				0.8070863485336304,
				0.8070863485336304
			],
			"translation":[
				-0.11341316998004913,
				0.09035076200962067,
				0
			]
		},
		{
			"mesh":7,
			"name":"\u5186\u67f1.004",
			"rotation":[
				0.7071068286895752,
				0,
				0,
				0.7071068286895752
			],
			"scale":[
				-0.008733403868973255,
				-0.5693225860595703,
				-0.008733403868973255
			],
			"translation":[
				0.8134098649024963,
				0.13057559728622437,
				-0.2215513288974762
			]
		},
		{
			"mesh":8,
			"name":"\u5186\u67f1.005",
			"scale":[
				0.05079749971628189,
				0.05079749971628189,
				0.05079749971628189
			],
			"translation":[
				0.8102448582649231,
				0.10128059983253479,
				-0.7912547588348389
			]
		},
		{
			"mesh":9,
			"name":"\u5186\u67f1.006",
			"rotation":[
				0.7071068286895752,
				0,
				0,
				0.7071068286895752
			],
			"scale":[
				0.05079749971628189,
				0.017583569511771202,
				0.05079749971628189
			],
			"translation":[
				0.6187215447425842,
				0.003067225217819214,
				1.0083982944488525
			]
		},
		{
			"mesh":10,
			"name":"\u5186\u67f1.007",
			"scale":[
				0.12744347751140594,
				0.044114597141742706,
				0.12744347751140594
			],
			"translation":[
				0.7272113561630249,
				0.08037590235471725,
				0.6655116081237793
			]
		},
		{
			"mesh":11,
			"name":"\u7acb\u65b9\u4f53.002",
			"scale":[
				0.04850952699780464,
				0.04378284141421318,
				0.023936178535223007
			],
			"translation":[
				-0.5418511629104614,
				0.0008905287832021713,
				1.0098552703857422
			]
		},
		{
			"mesh":12,
			"name":"\u7acb\u65b9\u4f53.003",
			"scale":[
				0.04850952699780464,
				0.04378284141421318,
				0.023936178535223007
			],
			"translation":[
				-0.4013243019580841,
				0.0008905287832021713,
				1.0098552703857422
			]
		},
		{
			"mesh":13,
			"name":"\u7acb\u65b9\u4f53.004",
			"rotation":[
				0,
				0.6755901575088501,
				-0.7372773885726929,
				0
			],
			"scale":[
				-1,
				-0.010055651888251305,
				-1
			],
			"translation":[
				0,
				1.0455222129821777,
				-1.0919314622879028
			]
		},
		{
			"mesh":14,
			"name":"\u5186\u67f1.008",
			"scale":[
				0.03411469608545303,
				0.007522381842136383,
				0.03411469608545303
			],
			"translation":[
				0.8102448582649231,
				0.13372589647769928,
				0.35729193687438965
			]
		},
		{
			"mesh":15,
			"name":"\u5186\u67f1.009",
			"scale":[
				0.017624210566282272,
				0.05079749971628189,
				0.017624210566282272
			],
			"translation":[
				-0.10535228997468948,
				0.09123855829238892,
				-0.007185935974121094
			]
		},
		{
			"mesh":16,
			"name":"\u5186\u67f1.010",
			"scale":[
				0.017678340896964073,
				0.006119363009929657,
				0.017678340896964073
			],
			"translation":[
				0.641427218914032,
				0.11877621710300446,
				0.6513485908508301
			]
		}
	],
	"materials":[
		{
			"doubleSided":true,
			"name":"\u30de\u30c6\u30ea\u30a2\u30eb",
			"pbrMetallicRoughness":{
				"baseColorFactor":[
					0.015908896923065186,
					0.015908896923065186,
					0.015908896923065186,
					1
				],
				"metallicFactor":0,
				"roughnessFactor":0.8464567065238953
			}
		},
		{
			"doubleSided":true,
			"name":"Material",
			"pbrMetallicRoughness":{
				"baseColorFactor":[
					0.800000011920929,
					0.800000011920929,
					0.800000011920929,
					1
				],
				"metallicFactor":0,
				"roughnessFactor":0.5
			}
		},
		{
			"doubleSided":true,
			"name":"\u30de\u30c6\u30ea\u30a2\u30eb.001",
			"pbrMetallicRoughness":{
				"baseColorFactor":[
					0.8002511262893677,
					0.20266306400299072,
					0.011760732159018517,
					1
				],
				"metallicFactor":0,
				"roughnessFactor":0.5
			}
		},
		{
			"doubleSided":true,
			"name":"\u30de\u30c6\u30ea\u30a2\u30eb.002",
			"pbrMetallicRoughness":{
				"baseColorFactor":[
					0.1364428848028183,
					0.1364428848028183,
					0.1364428848028183,
					1
				],
				"roughnessFactor":0.5
			}
		},
		{
			"doubleSided":true,
			"name":"\u30de\u30c6\u30ea\u30a2\u30eb.004",
			"pbrMetallicRoughness":{
				"baseColorFactor":[
					0.14562644064426422,
					0.14562644064426422,
					0.14562644064426422,
					1
				],
				"metallicFactor":0
			}
		},
		{
			"doubleSided":true,
			"name":"\u30de\u30c6\u30ea\u30a2\u30eb.005",
			"pbrMetallicRoughness":{
				"baseColorFactor":[
					0.800481915473938,
					0.05211372673511505,
					0.009810362011194229,
					1
				],
				"metallicFactor":0,
				"roughnessFactor":0.5
			}
		}
	],
	"meshes":[
		{
			"name":"\u7acb\u65b9\u4f53",
			"primitives":[
				{
					"attributes":{
						"POSITION":0,
						"NORMAL":1,
						"TEXCOORD_0":2
					},
					"indices":3,
					"material":0
				}
			]
		},
		{
			"name":"\u5186\u67f1",
			"primitives":[
				{
					"attributes":{
						"POSITION":4,
						"NORMAL":5,
						"TEXCOORD_0":6
					},
					"indices":7,
					"material":0
				}
			]
		},
		{
			"name":"\u5186\u67f1.001",
			"primitives":[
				{
					"attributes":{
						"POSITION":8,
						"NORMAL":9,
						"TEXCOORD_0":10
					},
					"indices":7,
					"material":0
				}
			]
		},
		{
			"name":"\u5186\u67f1.002",
			"primitives":[
				{
					"attributes":{
						"POSITION":11,
						"NORMAL":12,
						"TEXCOORD_0":13
					},
					"indices":7,
					"material":0
				}
			]
		},
		{
			"name":"\u5186\u67f1.003",
			"primitives":[
				{
					"attributes":{
						"POSITION":14,
						"NORMAL":15,
						"TEXCOORD_0":16
					},
					"indices":7,
					"material":0
				}
			]
		},
		{
			"name":"\u5186.001",
			"primitives":[
				{
					"attributes":{
						"POSITION":17,
						"NORMAL":18,
						"TEXCOORD_0":19
					},
					"indices":20,
					"material":1
				}
			]
		},
		{
			"name":"\u5186",
			"primitives":[
				{
					"attributes":{
						"POSITION":21,
						"NORMAL":22,
						"TEXCOORD_0":23
					},
					"indices":24,
					"material":2
				}
			]
		},
		{
			"name":"\u5186\u67f1.004",
			"primitives":[
				{
					"attributes":{
						"POSITION":25,
						"NORMAL":26,
						"TEXCOORD_0":27
					},
					"indices":28,
					"material":3
				}
			]
		},
		{
			"name":"\u5186\u67f1.005",
			"primitives":[
				{
					"attributes":{
						"POSITION":29,
						"NORMAL":30,
						"TEXCOORD_0":31
					},
					"indices":7,
					"material":0
				}
			]
		},
		{
			"name":"\u5186\u67f1.006",
			"primitives":[
				{
					"attributes":{
						"POSITION":32,
						"NORMAL":33,
						"TEXCOORD_0":34
					},
					"indices":7,
					"material":2
				}
			]
		},
		{
			"name":"\u5186\u67f1.007",
			"primitives":[
				{
					"attributes":{
						"POSITION":35,
						"NORMAL":36,
						"TEXCOORD_0":37
					},
					"indices":7,
					"material":4
				}
			]
		},
		{
			"name":"\u7acb\u65b9\u4f53.002",
			"primitives":[
				{
					"attributes":{
						"POSITION":38,
						"NORMAL":39,
						"TEXCOORD_0":40
					},
					"indices":41,
					"material":4
				}
			]
		},
		{
			"name":"\u7acb\u65b9\u4f53.003",
			"primitives":[
				{
					"attributes":{
						"POSITION":42,
						"NORMAL":43,
						"TEXCOORD_0":44
					},
					"indices":41,
					"material":4
				}
			]
		},
		{
			"name":"\u7acb\u65b9\u4f53.004",
			"primitives":[
				{
					"attributes":{
						"POSITION":45,
						"NORMAL":46,
						"TEXCOORD_0":47
					},
					"indices":48,
					"material":4
				}
			]
		},
		{
			"name":"\u5186\u67f1.008",
			"primitives":[
				{
					"attributes":{
						"POSITION":49,
						"NORMAL":50,
						"TEXCOORD_0":51
					},
					"indices":7,
					"material":0
				}
			]
		},
		{
			"name":"\u5186\u67f1.009",
			"primitives":[
				{
					"attributes":{
						"POSITION":52,
						"NORMAL":53,
						"TEXCOORD_0":54
					},
					"indices":7,
					"material":0
				}
			]
		},
		{
			"name":"\u5186\u67f1.010",
			"primitives":[
				{
					"attributes":{
						"POSITION":55,
						"NORMAL":56,
						"TEXCOORD_0":57
					},
					"indices":7,
					"material":5
				}
			]
		}
	],
	"accessors":[
		{
			"bufferView":0,
			"componentType":5126,
			"count":178,
			"max":[
				1,
				1,
				1
			],
			"min":[
				-1,
				-1,
				-1
			],
			"type":"VEC3"
		},
		{
			"bufferView":1,
			"componentType":5126,
			"count":178,
			"type":"VEC3"
		},
		{
			"bufferView":2,
			"componentType":5126,
			"count":178,
			"type":"VEC2"
		},
		{
			"bufferView":3,
			"componentType":5123,
			"count":516,
			"type":"SCALAR"
		},
		{
			"bufferView":4,
			"componentType":5126,
			"count":130,
			"max":[
				1,
				1,
				1
			],
			"min":[
				-1,
				-1,
				-1
			],
			"type":"VEC3"
		},
		{
			"bufferView":5,
			"componentType":5126,
			"count":130,
			"type":"VEC3"
		},
		{
			"bufferView":6,
			"componentType":5126,
			"count":130,
			"type":"VEC2"
		},
		{
			"bufferView":7,
			"componentType":5123,
			"count":372,
			"type":"SCALAR"
		},
		{
			"bufferView":8,
			"componentType":5126,
			"count":130,
			"max":[
				1,
				1,
				1
			],
			"min":[
				-1,
				-1,
				-1
			],
			"type":"VEC3"
		},
		{
			"bufferView":9,
			"componentType":5126,
			"count":130,
			"type":"VEC3"
		},
		{
			"bufferView":10,
			"componentType":5126,
			"count":130,
			"type":"VEC2"
		},
		{
			"bufferView":11,
			"componentType":5126,
			"count":130,
			"max":[
				1,
				1,
				1
			],
			"min":[
				-1,
				-1,
				-1
			],
			"type":"VEC3"
		},
		{
			"bufferView":12,
			"componentType":5126,
			"count":130,
			"type":"VEC3"
		},
		{
			"bufferView":13,
			"componentType":5126,
			"count":130,
			"type":"VEC2"
		},
		{
			"bufferView":14,
			"componentType":5126,
			"count":130,
			"max":[
				1,
				1,
				1
			],
			"min":[
				-1,
				-1,
				-1
			],
			"type":"VEC3"
		},
		{
			"bufferView":15,
			"componentType":5126,
			"count":130,
			"type":"VEC3"
		},
		{
			"bufferView":16,
			"componentType":5126,
			"count":130,
			"type":"VEC2"
		},
		{
			"bufferView":17,
			"componentType":5126,
			"count":386,
			"max":[
				0.9936952590942383,
				0.019607683643698692,
				0.9936952590942383
			],
			"min":[
				-0.9936952590942383,
				0,
				-0.9936952590942383
			],
			"type":"VEC3"
		},
		{
			"bufferView":18,
			"componentType":5126,
			"count":386,
			"type":"VEC3"
		},
		{
			"bufferView":19,
			"componentType":5126,
			"count":386,
			"type":"VEC2"
		},
		{
			"bufferView":20,
			"componentType":5123,
			"count":768,
			"type":"SCALAR"
		},
		{
			"bufferView":21,
			"componentType":5126,
			"count":258,
			"max":[
				0.9936952590942383,
				0.019607683643698692,
				0.9936952590942383
			],
			"min":[
				-0.9936952590942383,
				0,
				-0.9936952590942383
			],
			"type":"VEC3"
		},
		{
			"bufferView":22,
			"componentType":5126,
			"count":258,
			"type":"VEC3"
		},
		{
			"bufferView":23,
			"componentType":5126,
			"count":258,
			"type":"VEC2"
		},
		{
			"bufferView":24,
			"componentType":5123,
			"count":768,
			"type":"SCALAR"
		},
		{
			"bufferView":25,
			"componentType":5126,
			"count":192,
			"max":[
				1,
				1,
				1
			],
			"min":[
				-1,
				-1,
				-1
			],
			"type":"VEC3"
		},
		{
			"bufferView":26,
			"componentType":5126,
			"count":192,
			"type":"VEC3"
		},
		{
			"bufferView":27,
			"componentType":5126,
			"count":192,
			"type":"VEC2"
		},
		{
			"bufferView":28,
			"componentType":5123,
			"count":372,
			"type":"SCALAR"
		},
		{
			"bufferView":29,
			"componentType":5126,
			"count":130,
			"max":[
				1,
				1,
				1
			],
			"min":[
				-1,
				-1,
				-1
			],
			"type":"VEC3"
		},
		{
			"bufferView":30,
			"componentType":5126,
			"count":130,
			"type":"VEC3"
		},
		{
			"bufferView":31,
			"componentType":5126,
			"count":130,
			"type":"VEC2"
		},
		{
			"bufferView":32,
			"componentType":5126,
			"count":130,
			"max":[
				1,
				1,
				1
			],
			"min":[
				-1,
				-1,
				-1
			],
			"type":"VEC3"
		},
		{
			"bufferView":33,
			"componentType":5126,
			"count":130,
			"type":"VEC3"
		},
		{
			"bufferView":34,
			"componentType":5126,
			"count":130,
			"type":"VEC2"
		},
		{
			"bufferView":35,
			"componentType":5126,
			"count":130,
			"max":[
				1,
				1,
				1
			],
			"min":[
				-1,
				-1,
				-1
			],
			"type":"VEC3"
		},
		{
			"bufferView":36,
			"componentType":5126,
			"count":130,
			"type":"VEC3"
		},
		{
			"bufferView":37,
			"componentType":5126,
			"count":130,
			"type":"VEC2"
		},
		{
			"bufferView":38,
			"componentType":5126,
			"count":24,
			"max":[
				1,
				1,
				1
			],
			"min":[
				-1,
				-1,
				-1
			],
			"type":"VEC3"
		},
		{
			"bufferView":39,
			"componentType":5126,
			"count":24,
			"type":"VEC3"
		},
		{
			"bufferView":40,
			"componentType":5126,
			"count":24,
			"type":"VEC2"
		},
		{
			"bufferView":41,
			"componentType":5123,
			"count":36,
			"type":"SCALAR"
		},
		{
			"bufferView":42,
			"componentType":5126,
			"count":24,
			"max":[
				1,
				1,
				1
			],
			"min":[
				-1,
				-1,
				-1
			],
			"type":"VEC3"
		},
		{
			"bufferView":43,
			"componentType":5126,
			"count":24,
			"type":"VEC3"
		},
		{
			"bufferView":44,
			"componentType":5126,
			"count":24,
			"type":"VEC2"
		},
		{
			"bufferView":45,
			"componentType":5126,
			"count":264,
			"max":[
				1,
				1,
				1
			],
			"min":[
				-1,
				-1,
				-1
			],
			"type":"VEC3"
		},
		{
			"bufferView":46,
			"componentType":5126,
			"count":264,
			"type":"VEC3"
		},
		{
			"bufferView":47,
			"componentType":5126,
			"count":264,
			"type":"VEC2"
		},
		{
			"bufferView":48,
			"componentType":5123,
			"count":516,
			"type":"SCALAR"
		},
		{
			"bufferView":49,
			"componentType":5126,
			"count":130,
			"max":[
				1,
				1,
				1
			],
			"min":[
				-1,
				-1,
				-1
			],
			"type":"VEC3"
		},
		{
			"bufferView":50,
			"componentType":5126,
			"count":130,
			"type":"VEC3"
		},
		{
			"bufferView":51,
			"componentType":5126,
			"count":130,
			"type":"VEC2"
		},
		{
			"bufferView":52,
			"componentType":5126,
			"count":130,
			"max":[
				1,
				1,
				1
			],
			"min":[
				-1,
				-1,
				-1
			],
			"type":"VEC3"
		},
		{
			"bufferView":53,
			"componentType":5126,
			"count":130,
			"type":"VEC3"
		},
		{
			"bufferView":54,
			"componentType":5126,
			"count":130,
			"type":"VEC2"
		},
		{
			"bufferView":55,
			"componentType":5126,
			"count":130,
			"max":[
				1,
				1,
				1
			],
			"min":[
				-1,
				-1,
				-1
			],
			"type":"VEC3"
		},
		{
			"bufferView":56,
			"componentType":5126,
			"count":130,
			"type":"VEC3"
		},
		{
			"bufferView":57,
			"componentType":5126,
			"count":130,
			"type":"VEC2"
		}
	],
	"bufferViews":[
		{
			"buffer":0,
			"byteLength":2136,
			"byteOffset":0,
			"target":34962
		},
		{
			"buffer":0,
			"byteLength":2136,
			"byteOffset":2136,
			"target":34962
		},
		{
			"buffer":0,
			"byteLength":1424,
			"byteOffset":4272,
			"target":34962
		},
		{
			"buffer":0,
			"byteLength":1032,
			"byteOffset":5696,
			"target":34963
		},
		{
			"buffer":0,
			"byteLength":1560,
			"byteOffset":6728,
			"target":34962
		},
		{
			"buffer":0,
			"byteLength":1560,
			"byteOffset":8288,
			"target":34962
		},
		{
			"buffer":0,
			"byteLength":1040,
			"byteOffset":9848,
			"target":34962
		},
		{
			"buffer":0,
			"byteLength":744,
			"byteOffset":10888,
			"target":34963
		},
		{
			"buffer":0,
			"byteLength":1560,
			"byteOffset":11632,
			"target":34962
		},
		{
			"buffer":0,
			"byteLength":1560,
			"byteOffset":13192,
			"target":34962
		},
		{
			"buffer":0,
			"byteLength":1040,
			"byteOffset":14752,
			"target":34962
		},
		{
			"buffer":0,
			"byteLength":1560,
			"byteOffset":15792,
			"target":34962
		},
		{
			"buffer":0,
			"byteLength":1560,
			"byteOffset":17352,
			"target":34962
		},
		{
			"buffer":0,
			"byteLength":1040,
			"byteOffset":18912,
			"target":34962
		},
		{
			"buffer":0,
			"byteLength":1560,
			"byteOffset":19952,
			"target":34962
		},
		{
			"buffer":0,
			"byteLength":1560,
			"byteOffset":21512,
			"target":34962
		},
		{
			"buffer":0,
			"byteLength":1040,
			"byteOffset":23072,
			"target":34962
		},
		{
			"buffer":0,
			"byteLength":4632,
			"byteOffset":24112,
			"target":34962
		},
		{
			"buffer":0,
			"byteLength":4632,
			"byteOffset":28744,
			"target":34962
		},
		{
			"buffer":0,
			"byteLength":3088,
			"byteOffset":33376,
			"target":34962
		},
		{
			"buffer":0,
			"byteLength":1536,
			"byteOffset":36464,
			"target":34963
		},
		{
			"buffer":0,
			"byteLength":3096,
			"byteOffset":38000,
			"target":34962
		},
		{
			"buffer":0,
			"byteLength":3096,
			"byteOffset":41096,
			"target":34962
		},
		{
			"buffer":0,
			"byteLength":2064,
			"byteOffset":44192,
			"target":34962
		},
		{
			"buffer":0,
			"byteLength":1536,
			"byteOffset":46256,
			"target":34963
		},
		{
			"buffer":0,
			"byteLength":2304,
			"byteOffset":47792,
			"target":34962
		},
		{
			"buffer":0,
			"byteLength":2304,
			"byteOffset":50096,
			"target":34962
		},
		{
			"buffer":0,
			"byteLength":1536,
			"byteOffset":52400,
			"target":34962
		},
		{
			"buffer":0,
			"byteLength":744,
			"byteOffset":53936,
			"target":34963
		},
		{
			"buffer":0,
			"byteLength":1560,
			"byteOffset":54680,
			"target":34962
		},
		{
			"buffer":0,
			"byteLength":1560,
			"byteOffset":56240,
			"target":34962
		},
		{
			"buffer":0,
			"byteLength":1040,
			"byteOffset":57800,
			"target":34962
		},
		{
			"buffer":0,
			"byteLength":1560,
			"byteOffset":58840,
			"target":34962
		},
		{
			"buffer":0,
			"byteLength":1560,
			"byteOffset":60400,
			"target":34962
		},
		{
			"buffer":0,
			"byteLength":1040,
			"byteOffset":61960,
			"target":34962
		},
		{
			"buffer":0,
			"byteLength":1560,
			"byteOffset":63000,
			"target":34962
		},
		{
			"buffer":0,
			"byteLength":1560,
			"byteOffset":64560,
			"target":34962
		},
		{
			"buffer":0,
			"byteLength":1040,
			"byteOffset":66120,
			"target":34962
		},
		{
			"buffer":0,
			"byteLength":288,
			"byteOffset":67160,
			"target":34962
		},
		{
			"buffer":0,
			"byteLength":288,
			"byteOffset":67448,
			"target":34962
		},
		{
			"buffer":0,
			"byteLength":192,
			"byteOffset":67736,
			"target":34962
		},
		{
			"buffer":0,
			"byteLength":72,
			"byteOffset":67928,
			"target":34963
		},
		{
			"buffer":0,
			"byteLength":288,
			"byteOffset":68000,
			"target":34962
		},
		{
			"buffer":0,
			"byteLength":288,
			"byteOffset":68288,
			"target":34962
		},
		{
			"buffer":0,
			"byteLength":192,
			"byteOffset":68576,
			"target":34962
		},
		{
			"buffer":0,
			"byteLength":3168,
			"byteOffset":68768,
			"target":34962
		},
		{
			"buffer":0,
			"byteLength":3168,
			"byteOffset":71936,
			"target":34962
		},
		{
			"buffer":0,
			"byteLength":2112,
			"byteOffset":75104,
			"target":34962
		},
		{
			"buffer":0,
			"byteLength":1032,
			"byteOffset":77216,
			"target":34963
		},
		{
			"buffer":0,
			"byteLength":1560,
			"byteOffset":78248,
			"target":34962
		},
		{
			"buffer":0,
			"byteLength":1560,
			"byteOffset":79808,
			"target":34962
		},
		{
			"buffer":0,
			"byteLength":1040,
			"byteOffset":81368,
			"target":34962
		},
		{
			"buffer":0,
			"byteLength":1560,
			"byteOffset":82408,
			"target":34962
		},
		{
			"buffer":0,
			"byteLength":1560,
			"byteOffset":83968,
			"target":34962
		},
		{
			"buffer":0,
			"byteLength":1040,
			"byteOffset":85528,
			"target":34962
		},
		{
			"buffer":0,
			"byteLength":1560,
			"byteOffset":86568,
			"target":34962
		},
		{
			"buffer":0,
			"byteLength":1560,
			"byteOffset":88128,
			"target":34962
		},
		{
			"buffer":0,
			"byteLength":1040,
			"byteOffset":89688,
			"target":34962
		}
	],
	"buffers":[
		{
			"byteLength":90728,
			"uri":"record_player.bin"
		}
	]
}
