{
	"asset":{
		"generator":"Khronos glTF Blender I/O v5.0.21",
		"version":"2.0"
	},
	"scene":0,
	"scenes":[
		{
			"name":"Scene",
			"nodes":[
				0,
				1,
				2,
				3,
				4
			]
		}
	],
	"nodes":[
		{
			"mesh":0,
			"name":"\u7acb\u65b9\u4f53.003",
			"rotation":[
				0.35463380813598633,
				0.010905684903264046,
				-0.02937403693795204,
				0.9344802498817444
			],
			"scale":[
				0.09953668713569641,
				0.545367419719696,
				0.3927614688873291
			],
			"translation":[
				0.6583831310272217,
				2.858780860900879,
				-1.7265263795852661
			]
		},
		{
			"mesh":1,
			"name":"\u7acb\u65b9\u4f53.002",
			"rotation":[
				-0.24629975855350494,
				-0.007939967326819897,
				-0.03031047247350216,
				0.9686870574951172
			],
			"scale":[
				0.09953668713569641,
				0.545367419719696,
				0.3927614986896515
			],
			"translation":[
				0.6583831310272217,
				3.168564796447754,
				-3.1296656131744385
			]
		},
		{
			"mesh":2,
			"name":"\u7acb\u65b9\u4f53.001",
			"rotation":[
				-0.24629978835582733,
				-0.007939966395497322,
				-0.03031047247350216,
				0.9686870574951172
			],
			"scale":[
				0.13118916749954224,
				0.7187932133674622,
				0.5176588892936707
			],
			"translation":[
				0.5476297736167908,
				1.6923696994781494,
				-3.813464403152466
			]
		},
		{
			"mesh":3,
			"name":"\u7acb\u65b9\u4f53",
			"rotation":[
				0.18853749334812164,
				0.010760762728750706,
				-0.038701288402080536,
				0.9812441468238831
			],
			"scale":[
				0.23052705824375153,
				1.2630711793899536,
				0.9096358418464661
			],
			"translation":[
				0.5420925617218018,
				1.9846835136413574,
				-2.7141919136047363
			]
		},
		{
			"mesh":4,
			"name":"\u5186\u67f1.001",
			"translation":[
				0.4773390293121338,
				0.027805328369140625,
				-3.0873143672943115
			]
		}
	],
	"materials":[
		{
			"doubleSided":true,
			"name":"\u30de\u30c6\u30ea\u30a2\u30eb.003",
			"pbrMetallicRoughness":{
				"baseColorFactor":[
					0.015307367779314518,
					0.10313652455806732,
					0.0013423810014501214,
					1
				],
				"metallicFactor":0
			}
		},
		{
			"doubleSided":true,
			"name":"\u30de\u30c6\u30ea\u30a2\u30eb.004",
			"pbrMetallicRoughness":{
				"baseColorFactor":[
					0.3907840847969055,
					0.1198202520608902,
					0.06189227104187012,
					1
				],
				"metallicFactor":0,
				"roughnessFactor":0.5
			}
		},
		{
			"doubleSided":true,
			"name":"\u30de\u30c6\u30ea\u30a2\u30eb.005",
			"pbrMetallicRoughness":{
				"baseColorFactor":[
					0.047155942767858505,
					0.02007545717060566,
					0.019405271857976913,
					1
				],
				"metallicFactor":0,
				"roughnessFactor":0.5
			}
		}
	],
	"meshes":[
		{
			"name":"\u7acb\u65b9\u4f53.004",
			"primitives":[
				{
					"attributes":{
						"POSITION":0,
						"NORMAL":1,
						"TEXCOORD_0":2
					},
					"indices":3,
					"material":0
				}
			]
		},
		{
			"name":"\u7acb\u65b9\u4f53.005",
			"primitives":[
				{
					"attributes":{
						"POSITION":4,
						"NORMAL":5,
						"TEXCOORD_0":6
					},
					"indices":3,
					"material":0
				}
			]
		},
		{
			"name":"\u7acb\u65b9\u4f53.006",
			"primitives":[
				{
					"attributes":{
						"POSITION":7,
						"NORMAL":8,
						"TEXCOORD_0":9
					},
					"indices":3,
					"material":0
				}
			]
		},
		{
			"name":"\u7acb\u65b9\u4f53.007",
			"primitives":[
				{
					"attributes":{
						"POSITION":10,
						"NORMAL":11,
						"TEXCOORD_0":12
					},
					"indices":3,
					"material":0
				}
			]
		},
		{
			"name":"\u5186\u67f1.001",
			"primitives":[
				{
					"attributes":{
						"POSITION":13,
						"NORMAL":14,
						"TEXCOORD_0":15
					},
					"indices":16,
					"material":1
				},
				{
					"attributes":{
						"POSITION":17,
						"NORMAL":18,
						"TEXCOORD_0":19
					},
					"indices":20,
					"material":2
				}
			]
		}
	],
	"accessors":[
		{
			"bufferView":0,
			"componentType":5126,
			"count":6144,
			"max":[
				0.839506208896637,
				0.839506208896637,
				0.839506208896637
			],
			"min":[
				-0.8395062685012817,
				-0.839506208896637,
				-0.839506208896637
			],
			"type":"VEC3"
		},
		{
			"bufferView":1,
			"componentType":5126,
			"count":6144,
			"type":"VEC3"
		},
		{
			"bufferView":2,
			"componentType":5126,
			"count":6144,
			"type":"VEC2"
		},
		{
			"bufferView":3,
			"componentType":5123,
			"count":9216,
			"type":"SCALAR"
		},
		{
			"bufferView":4,
			"componentType":5126,
			"count":6144,
			"max":[
				0.839506208896637,
				0.839506208896637,
				0.839506208896637
			],
			"min":[
				-0.8395062685012817,
				-0.839506208896637,
				-0.839506208896637
			],
			"type":"VEC3"
		},
		{
			"bufferView":5,
			"componentType":5126,
			"count":6144,
			"type":"VEC3"
		},
		{
			"bufferView":6,
			"componentType":5126,
			"count":6144,
			"type":"VEC2"
		},
		{
			"bufferView":7,
			"componentType":5126,
			"count":6144,
			"max":[
				0.839506208896637,
				0.839506208896637,
				0.839506208896637
			],
			"min":[
				-0.8395062685012817,
				-0.839506208896637,
				-0.839506208896637
			],
			"type":"VEC3"
		},
		{
			"bufferView":8,
			"componentType":5126,
			"count":6144,
			"type":"VEC3"
		},
		{
			"bufferView":9,
			"componentType":5126,
			"count":6144,
			"type":"VEC2"
		},
		{
			"bufferView":10,
			"componentType":5126,
			"count":6144,
			"max":[
				0.839506208896637,
				0.839506208896637,
				0.839506208896637
			],
			"min":[
				-0.8395062685012817,
				-0.839506208896637,
				-0.839506208896637
			],
			"type":"VEC3"
		},
		{
			"bufferView":11,
			"componentType":5126,
			"count":6144,
			"type":"VEC3"
		},
		{
			"bufferView":12,
			"componentType":5126,
			"count":6144,
			"type":"VEC2"
		},
		{
			"bufferView":13,
			"componentType":5126,
			"count":2688,
			"max":[
				1.2843149900436401,
				1.301424264907837,
				1.2843149900436401
			],
			"min":[
				-1.2843149900436401,
				-0.4514780640602112,
				-1.2843149900436401
			],
			"type":"VEC3"
		},
		{
			"bufferView":14,
			"componentType":5126,
			"count":2688,
			"type":"VEC3"
		},
		{
			"bufferView":15,
			"componentType":5126,
			"count":2688,
			"type":"VEC2"
		},
		{
			"bufferView":16,
			"componentType":5123,
			"count":4218,
			"type":"SCALAR"
		},
		{
			"bufferView":17,
			"componentType":5126,
			"count":128,
			"max":[
				1.2133615016937256,
				1.0594230890274048,
				1.2133615016937256
			],
			"min":[
				-1.2133615016937256,
				1.0594230890274048,
				-1.2133615016937256
			],
			"type":"VEC3"
		},
		{
			"bufferView":18,
			"componentType":5126,
			"count":128,
			"type":"VEC3"
		},
		{
			"bufferView":19,
			"componentType":5126,
			"count":128,
			"type":"VEC2"
		},
		{
			"bufferView":20,
			"componentType":5123,
			"count":378,
			"type":"SCALAR"
		}
	],
	"bufferViews":[
		{
			"buffer":0,
			"byteLength":73728,
			"byteOffset":0,
			"target":34962
		},
		{
			"buffer":0,
			"byteLength":73728,
			"byteOffset":73728,
			"target":34962
		},
		{
			"buffer":0,
			"byteLength":49152,
			"byteOffset":147456,
			"target":34962
		},
		{
			"buffer":0,
			"byteLength":18432,
			"byteOffset":196608,
			"target":34963
		},
		{
			"buffer":0,
			"byteLength":73728,
			"byteOffset":215040,
			"target":34962
		},
		{
			"buffer":0,
			"byteLength":73728,
			"byteOffset":288768,
			"target":34962
		},
		{
			"buffer":0,
			"byteLength":49152,
			"byteOffset":362496,
			"target":34962
		},
		{
			"buffer":0,
			"byteLength":73728,
			"byteOffset":411648,
			"target":34962
		},
		{
			"buffer":0,
			"byteLength":73728,
			"byteOffset":485376,
			"target":34962
		},
		{
			"buffer":0,
			"byteLength":49152,
			"byteOffset":559104,
			"target":34962
		},
		{
			"buffer":0,
			"byteLength":73728,
			"byteOffset":608256,
			"target":34962
		},
		{
			"buffer":0,
			"byteLength":73728,
			"byteOffset":681984,
			"target":34962
		},
		{
			"buffer":0,
			"byteLength":49152,
			"byteOffset":755712,
			"target":34962
		},
		{
			"buffer":0,
			"byteLength":32256,
			"byteOffset":804864,
			"target":34962
		},
		{
			"buffer":0,
			"byteLength":32256,
			"byteOffset":837120,
			"target":34962
		},
		{
			"buffer":0,
			"byteLength":21504,
			"byteOffset":869376,
			"target":34962
		},
		{
			"buffer":0,
			"byteLength":8436,
			"byteOffset":890880,
			"target":34963
		},
		{
			"buffer":0,
			"byteLength":1536,
			"byteOffset":899316,
			"target":34962
		},
		{
			"buffer":0,
			"byteLength":1536,
			"byteOffset":900852,
			"target":34962
		},
		{
			"buffer":0,
			"byteLength":1024,
			"byteOffset":902388,
			"target":34962
		},
		{
			"buffer":0,
			"byteLength":756,
			"byteOffset":903412,
			"target":34963
		}
	],
	"buffers":[
		{
			"byteLength":904168,
			"uri":"cactus2.bin"
		}
	]
}
