{
	"asset":{
		"generator":"Khronos glTF Blender I/O v5.0.21",
		"version":"2.0"
	},
	"scene":0,
	"scenes":[
		{
			"name":"Scene",
			"nodes":[
				0,
				1
			]
		}
	],
	"nodes":[
		{
			"mesh":0,
			"name":"\u5186\u67f1.003",
			"scale":[
				0.7001678347587585,
				0.7001678347587585,
				0.7001678347587585
			],
			"translation":[
				0.0036030858755111694,
				2.1744883060455322,
				-6.540917873382568
			]
		},
		{
			"mesh":1,
			"name":"\u5186\u67f1.002",
			"translation":[
				0,
				0.005227085202932358,
				-6.513110160827637
			]
		}
	],
	"materials":[
		{
			"doubleSided":true,
			"name":"\u30de\u30c6\u30ea\u30a2\u30eb.006",
			"pbrMetallicRoughness":{
				"baseColorTexture":{
					"index":0
				},
				"metallicFactor":0
			}
		},
		{
			"doubleSided":true,
			"name":"\u30de\u30c6\u30ea\u30a2\u30eb.007",
			"pbrMetallicRoughness":{
				"baseColorFactor":[
					0.3907840847969055,
					0.1198202520608902,
					0.06189227104187012,
					1
				],
				"metallicFactor":0,
				"roughnessFactor":0.5
			}
		},
		{
			"doubleSided":true,
			"name":"\u30de\u30c6\u30ea\u30a2\u30eb.008",
			"pbrMetallicRoughness":{
				"baseColorFactor":[
					0.047155942767858505,
					0.02007545717060566,
					0.019405271857976913,
					1
				],
				"metallicFactor":0,
				"roughnessFactor":0.5
			}
		}
	],
	"meshes":[
		{
			"name":"\u5186\u67f1.004",
			"primitives":[
				{
					"attributes":{
						"POSITION":0,
						"NORMAL":1,
						"TEXCOORD_0":2
					},
					"indices":3,
					"material":0
				}
			]
		},
		{
			"name":"\u5186\u67f1.005",
			"primitives":[
				{
					"attributes":{
						"POSITION":4,
						"NORMAL":5,
						"TEXCOORD_0":6
					},
					"indices":7,
					"material":1
				},
				{
					"attributes":{
						"POSITION":8,
						"NORMAL":9,
						"TEXCOORD_0":10
					},
					"indices":11,
					"material":2
				}
			]
		}
	],
	"textures":[
		{
			"sampler":0,
			"source":0
		}
	],
	"images":[
		{
			"mimeType":"image/jpeg",
			"name":"\u540d\u79f0\u672a\u8a2d\u5b9a\u306e\u30a2\u30fc\u30c8\u30ef\u30fc\u30af",
			"uri":"%E5%90%8D%E7%A7%B0%E6%9C%AA%E8%A8%AD%E5%AE%9A%E3%81%AE%E3%82%A2%E3%83%BC%E3%83%88%E3%83%AF%E3%83%BC%E3%82%AF.jpg"
		}
	],
	"accessors":[
		{
			"bufferView":0,
			"componentType":5126,
			"count":10449,
			"max":[
				1.6008554697036743,
				1.4996086359024048,
				1.6001832485198975
			],
			"min":[
				-1.5996837615966797,
				-1.6109411716461182,
				-1.6003565788269043
			],
			"type":"VEC3"
		},
		{
			"bufferView":1,
			"componentType":5126,
			"count":10449,
			"type":"VEC3"
		},
		{
			"bufferView":2,
			"componentType":5126,
			"count":10449,
			"type":"VEC2"
		},
		{
			"bufferView":3,
			"componentType":5123,
			"count":48384,
			"type":"SCALAR"
		},
		{
			"bufferView":4,
			"componentType":5126,
			"count":2688,
			"max":[
				1.2843149900436401,
				1.301424264907837,
				1.2843149900436401
			],
			"min":[
				-1.2843149900436401,
				-0.4514780640602112,
				-1.2843149900436401
			],
			"type":"VEC3"
		},
		{
			"bufferView":5,
			"componentType":5126,
			"count":2688,
			"type":"VEC3"
		},
		{
			"bufferView":6,
			"componentType":5126,
			"count":2688,
			"type":"VEC2"
		},
		{
			"bufferView":7,
			"componentType":5123,
			"count":4218,
			"type":"SCALAR"
		},
		{
			"bufferView":8,
			"componentType":5126,
			"count":128,
			"max":[
				1.2133615016937256,
				1.0594230890274048,
				1.2133615016937256
			],
			"min":[
				-1.2133615016937256,
				1.0594230890274048,
				-1.2133615016937256
			],
			"type":"VEC3"
		},
		{
			"bufferView":9,
			"componentType":5126,
			"count":128,
			"type":"VEC3"
		},
		{
			"bufferView":10,
			"componentType":5126,
			"count":128,
			"type":"VEC2"
		},
		{
			"bufferView":11,
			"componentType":5123,
			"count":378,
			"type":"SCALAR"
		}
	],
	"bufferViews":[
		{
			"buffer":0,
			"byteLength":125388,
			"byteOffset":0,
			"target":34962
		},
		{
			"buffer":0,
			"byteLength":125388,
			"byteOffset":125388,
			"target":34962
		},
		{
			"buffer":0,
			"byteLength":83592,
			"byteOffset":250776,
			"target":34962
		},
		{
			"buffer":0,
			"byteLength":96768,
			"byteOffset":334368,
			"target":34963
		},
		{
			"buffer":0,
			"byteLength":32256,
			"byteOffset":431136,
			"target":34962
		},
		{
			"buffer":0,
			"byteLength":32256,
			"byteOffset":463392,
			"target":34962
		},
		{
			"buffer":0,
			"byteLength":21504,
			"byteOffset":495648,
			"target":34962
		},
		{
			"buffer":0,
			"byteLength":8436,
			"byteOffset":517152,
			"target":34963
		},
		{
			"buffer":0,
			"byteLength":1536,
			"byteOffset":525588,
			"target":34962
		},
		{
			"buffer":0,
			"byteLength":1536,
			"byteOffset":527124,
			"target":34962
		},
		{
			"buffer":0,
			"byteLength":1024,
			"byteOffset":528660,
			"target":34962
		},
		{
			"buffer":0,
			"byteLength":756,
			"byteOffset":529684,
			"target":34963
		}
	],
	"samplers":[
		{
			"magFilter":9729,
			"minFilter":9987
		}
	],
	"buffers":[
		{
			"byteLength":530440,
			"uri":"cactus2.bin"
		}
	]
}
