{
	"asset":{
		"generator":"Khronos glTF Blender I/O v5.0.21",
		"version":"2.0"
	},
	"scene":0,
	"scenes":[
		{
			"name":"Scene",
			"nodes":[
				0,
				1
			]
		}
	],
	"nodes":[
		{
			"mesh":0,
			"name":"\u7acb\u65b9\u4f53.001",
			"rotation":[
				-0.24629978835582733,
				-0.007939966395497322,
				-0.03031047247350216,
				0.9686870574951172
			],
			"scale":[
				0.13118916749954224,
				0.7187932133674622,
				0.5176588892936707
			],
			"translation":[
				0.5476297736167908,
				1.6923696994781494,
				-3.813464403152466
			]
		},
		{
			"mesh":1,
			"name":"\u5186\u67f1.001",
			"translation":[
				0.4773390293121338,
				0.027805328369140625,
				-3.0873143672943115
			]
		}
	],
	"materials":[
		{
			"doubleSided":true,
			"name":"\u30de\u30c6\u30ea\u30a2\u30eb.003",
			"pbrMetallicRoughness":{
				"baseColorTexture":{
					"index":0
				},
				"metallicFactor":0
			}
		},
		{
			"doubleSided":true,
			"name":"\u30de\u30c6\u30ea\u30a2\u30eb.004",
			"pbrMetallicRoughness":{
				"baseColorFactor":[
					0.3907840847969055,
					0.1198202520608902,
					0.06189227104187012,
					1
				],
				"metallicFactor":0,
				"roughnessFactor":0.5
			}
		},
		{
			"doubleSided":true,
			"name":"\u30de\u30c6\u30ea\u30a2\u30eb.005",
			"pbrMetallicRoughness":{
				"baseColorFactor":[
					0.047155942767858505,
					0.02007545717060566,
					0.019405271857976913,
					1
				],
				"metallicFactor":0,
				"roughnessFactor":0.5
			}
		}
	],
	"meshes":[
		{
			"name":"\u7acb\u65b9\u4f53.006",
			"primitives":[
				{
					"attributes":{
						"POSITION":0,
						"NORMAL":1,
						"TEXCOORD_0":2
					},
					"indices":3,
					"material":0
				}
			]
		},
		{
			"name":"\u5186\u67f1.001",
			"primitives":[
				{
					"attributes":{
						"POSITION":4,
						"NORMAL":5,
						"TEXCOORD_0":6
					},
					"indices":7,
					"material":1
				},
				{
					"attributes":{
						"POSITION":8,
						"NORMAL":9,
						"TEXCOORD_0":10
					},
					"indices":11,
					"material":2
				}
			]
		}
	],
	"textures":[
		{
			"sampler":0,
			"source":0
		}
	],
	"images":[
		{
			"mimeType":"image/jpeg",
			"name":"cactus_texture",
			"uri":"cactus_texture.jpg"
		}
	],
	"accessors":[
		{
			"bufferView":0,
			"componentType":5126,
			"count":24576,
			"max":[
				1.6401976346969604,
				1.9938888549804688,
				5.48123025894165
			],
			"min":[
				-1.4606951475143433,
				-1.653017520904541,
				-0.839506208896637
			],
			"type":"VEC3"
		},
		{
			"bufferView":1,
			"componentType":5126,
			"count":24576,
			"type":"VEC3"
		},
		{
			"bufferView":2,
			"componentType":5126,
			"count":24576,
			"type":"VEC2"
		},
		{
			"bufferView":3,
			"componentType":5123,
			"count":36864,
			"type":"SCALAR"
		},
		{
			"bufferView":4,
			"componentType":5126,
			"count":2688,
			"max":[
				1.2843149900436401,
				1.301424264907837,
				1.2843149900436401
			],
			"min":[
				-1.2843149900436401,
				-0.4514780640602112,
				-1.2843149900436401
			],
			"type":"VEC3"
		},
		{
			"bufferView":5,
			"componentType":5126,
			"count":2688,
			"type":"VEC3"
		},
		{
			"bufferView":6,
			"componentType":5126,
			"count":2688,
			"type":"VEC2"
		},
		{
			"bufferView":7,
			"componentType":5123,
			"count":4218,
			"type":"SCALAR"
		},
		{
			"bufferView":8,
			"componentType":5126,
			"count":128,
			"max":[
				1.2133615016937256,
				1.0594230890274048,
				1.2133615016937256
			],
			"min":[
				-1.2133615016937256,
				1.0594230890274048,
				-1.2133615016937256
			],
			"type":"VEC3"
		},
		{
			"bufferView":9,
			"componentType":5126,
			"count":128,
			"type":"VEC3"
		},
		{
			"bufferView":10,
			"componentType":5126,
			"count":128,
			"type":"VEC2"
		},
		{
			"bufferView":11,
			"componentType":5123,
			"count":378,
			"type":"SCALAR"
		}
	],
	"bufferViews":[
		{
			"buffer":0,
			"byteLength":294912,
			"byteOffset":0,
			"target":34962
		},
		{
			"buffer":0,
			"byteLength":294912,
			"byteOffset":294912,
			"target":34962
		},
		{
			"buffer":0,
			"byteLength":196608,
			"byteOffset":589824,
			"target":34962
		},
		{
			"buffer":0,
			"byteLength":73728,
			"byteOffset":786432,
			"target":34963
		},
		{
			"buffer":0,
			"byteLength":32256,
			"byteOffset":860160,
			"target":34962
		},
		{
			"buffer":0,
			"byteLength":32256,
			"byteOffset":892416,
			"target":34962
		},
		{
			"buffer":0,
			"byteLength":21504,
			"byteOffset":924672,
			"target":34962
		},
		{
			"buffer":0,
			"byteLength":8436,
			"byteOffset":946176,
			"target":34963
		},
		{
			"buffer":0,
			"byteLength":1536,
			"byteOffset":954612,
			"target":34962
		},
		{
			"buffer":0,
			"byteLength":1536,
			"byteOffset":956148,
			"target":34962
		},
		{
			"buffer":0,
			"byteLength":1024,
			"byteOffset":957684,
			"target":34962
		},
		{
			"buffer":0,
			"byteLength":756,
			"byteOffset":958708,
			"target":34963
		}
	],
	"samplers":[
		{
			"magFilter":9729,
			"minFilter":9987
		}
	],
	"buffers":[
		{
			"byteLength":959464,
			"uri":"cactus1.bin"
		}
	]
}
