{
	"asset":{
		"generator":"Khronos glTF Blender I/O v5.0.21",
		"version":"2.0"
	},
	"scene":0,
	"scenes":[
		{
			"name":"Scene",
			"nodes":[
				0,
				1
			]
		}
	],
	"nodes":[
		{
			"mesh":0,
			"name":"\u5186\u67f1.002",
			"translation":[
				0,
				0.005227085202932358,
				-6.513110160827637
			]
		},
		{
			"mesh":1,
			"name":"\u5186\u67f1.003",
			"scale":[
				0.7001678347587585,
				0.7001678347587585,
				0.7001678347587585
			],
			"translation":[
				0.0036030858755111694,
				2.1744883060455322,
				-6.540917873382568
			]
		}
	],
	"materials":[
		{
			"doubleSided":true,
			"name":"\u30de\u30c6\u30ea\u30a2\u30eb.001",
			"pbrMetallicRoughness":{
				"baseColorFactor":[
					0.3907840847969055,
					0.1198202520608902,
					0.06189227104187012,
					1
				],
				"metallicFactor":0,
				"roughnessFactor":0.5
			}
		},
		{
			"doubleSided":true,
			"name":"\u30de\u30c6\u30ea\u30a2\u30eb.002",
			"pbrMetallicRoughness":{
				"baseColorFactor":[
					0.047155942767858505,
					0.02007545717060566,
					0.019405271857976913,
					1
				],
				"metallicFactor":0,
				"roughnessFactor":0.5
			}
		},
		{
			"doubleSided":true,
			"name":"\u30de\u30c6\u30ea\u30a2\u30eb",
			"pbrMetallicRoughness":{
				"baseColorFactor":[
					0.015307367779314518,
					0.10313652455806732,
					0.0013423810014501214,
					1
				],
				"metallicFactor":0
			}
		}
	],
	"meshes":[
		{
			"name":"\u5186\u67f1.003",
			"primitives":[
				{
					"attributes":{
						"POSITION":0,
						"NORMAL":1,
						"TEXCOORD_0":2
					},
					"indices":3,
					"material":0
				},
				{
					"attributes":{
						"POSITION":4,
						"NORMAL":5,
						"TEXCOORD_0":6
					},
					"indices":7,
					"material":1
				}
			]
		},
		{
			"name":"\u5186\u67f1",
			"primitives":[
				{
					"attributes":{
						"POSITION":8,
						"NORMAL":9,
						"TEXCOORD_0":10
					},
					"indices":11,
					"material":2
				}
			]
		}
	],
	"accessors":[
		{
			"bufferView":0,
			"componentType":5126,
			"count":2688,
			"max":[
				1.2843149900436401,
				1.301424264907837,
				1.2843149900436401
			],
			"min":[
				-1.2843149900436401,
				-0.4514780640602112,
				-1.2843149900436401
			],
			"type":"VEC3"
		},
		{
			"bufferView":1,
			"componentType":5126,
			"count":2688,
			"type":"VEC3"
		},
		{
			"bufferView":2,
			"componentType":5126,
			"count":2688,
			"type":"VEC2"
		},
		{
			"bufferView":3,
			"componentType":5123,
			"count":4218,
			"type":"SCALAR"
		},
		{
			"bufferView":4,
			"componentType":5126,
			"count":128,
			"max":[
				1.2133615016937256,
				1.0594230890274048,
				1.2133615016937256
			],
			"min":[
				-1.2133615016937256,
				1.0594230890274048,
				-1.2133615016937256
			],
			"type":"VEC3"
		},
		{
			"bufferView":5,
			"componentType":5126,
			"count":128,
			"type":"VEC3"
		},
		{
			"bufferView":6,
			"componentType":5126,
			"count":128,
			"type":"VEC2"
		},
		{
			"bufferView":7,
			"componentType":5123,
			"count":378,
			"type":"SCALAR"
		},
		{
			"bufferView":8,
			"componentType":5126,
			"count":8491,
			"max":[
				1.6008554697036743,
				1.4996086359024048,
				1.6001832485198975
			],
			"min":[
				-1.5996837615966797,
				-1.6109411716461182,
				-1.6003565788269043
			],
			"type":"VEC3"
		},
		{
			"bufferView":9,
			"componentType":5126,
			"count":8491,
			"type":"VEC3"
		},
		{
			"bufferView":10,
			"componentType":5126,
			"count":8491,
			"type":"VEC2"
		},
		{
			"bufferView":11,
			"componentType":5123,
			"count":48384,
			"type":"SCALAR"
		}
	],
	"bufferViews":[
		{
			"buffer":0,
			"byteLength":32256,
			"byteOffset":0,
			"target":34962
		},
		{
			"buffer":0,
			"byteLength":32256,
			"byteOffset":32256,
			"target":34962
		},
		{
			"buffer":0,
			"byteLength":21504,
			"byteOffset":64512,
			"target":34962
		},
		{
			"buffer":0,
			"byteLength":8436,
			"byteOffset":86016,
			"target":34963
		},
		{
			"buffer":0,
			"byteLength":1536,
			"byteOffset":94452,
			"target":34962
		},
		{
			"buffer":0,
			"byteLength":1536,
			"byteOffset":95988,
			"target":34962
		},
		{
			"buffer":0,
			"byteLength":1024,
			"byteOffset":97524,
			"target":34962
		},
		{
			"buffer":0,
			"byteLength":756,
			"byteOffset":98548,
			"target":34963
		},
		{
			"buffer":0,
			"byteLength":101892,
			"byteOffset":99304,
			"target":34962
		},
		{
			"buffer":0,
			"byteLength":101892,
			"byteOffset":201196,
			"target":34962
		},
		{
			"buffer":0,
			"byteLength":67928,
			"byteOffset":303088,
			"target":34962
		},
		{
			"buffer":0,
			"byteLength":96768,
			"byteOffset":371016,
			"target":34963
		}
	],
	"buffers":[
		{
			"byteLength":467784,
			"uri":"cactus1.bin"
		}
	]
}
