{
	"asset":{
		"generator":"Khronos glTF Blender I/O v5.0.21",
		"version":"2.0"
	},
	"scene":0,
	"scenes":[
		{
			"name":"Scene",
			"nodes":[
				0,
				1
			]
		}
	],
	"nodes":[
		{
			"mesh":0,
			"name":"penguin_parent",
			"scale":[
				0.15534177422523499,
				0.6747517585754395,
				0.15534177422523499
			],
			"translation":[
				0.09765814244747162,
				-0.1416071355342865,
				0.5140302181243896
			]
		},
		{
			"mesh":1,
			"name":"penguin_child",
			"rotation":[
				0,
				-1,
				0,
				0.00042895879596471786
			],
			"scale":[
				0.1193251684308052,
				0.4183987081050873,
				0.1193251684308052
			],
			"translation":[
				0.10292364656925201,
				-0.3989044427871704,
				0.9358580708503723
			]
		}
	],
	"materials":[
		{
			"doubleSided":true,
			"name":"\u30de\u30c6\u30ea\u30a2\u30eb.001",
			"pbrMetallicRoughness":{
				"baseColorTexture":{
					"index":0
				},
				"metallicFactor":0,
				"roughnessFactor":0.5
			}
		},
		{
			"doubleSided":true,
			"name":"\u30de\u30c6\u30ea\u30a2\u30eb.002",
			"pbrMetallicRoughness":{
				"baseColorTexture":{
					"index":1
				},
				"metallicFactor":0,
				"roughnessFactor":0.5
			}
		}
	],
	"meshes":[
		{
			"name":"\u5186\u67f1",
			"primitives":[
				{
					"attributes":{
						"POSITION":0,
						"NORMAL":1,
						"TEXCOORD_0":2
					},
					"indices":3,
					"material":0
				},
				{
					"attributes":{
						"POSITION":4,
						"NORMAL":5,
						"TEXCOORD_0":6
					},
					"indices":7,
					"material":0
				}
			]
		},
		{
			"name":"\u5186\u67f1.001",
			"primitives":[
				{
					"attributes":{
						"POSITION":8,
						"NORMAL":9,
						"TEXCOORD_0":10
					},
					"indices":11,
					"material":1
				}
			]
		}
	],
	"textures":[
		{
			"sampler":0,
			"source":0
		},
		{
			"sampler":0,
			"source":0
		}
	],
	"images":[
		{
			"mimeType":"image/jpeg",
			"name":"oak_veneer_01_diff_4k",
			"uri":"oak_veneer_01_diff_4k.jpg"
		}
	],
	"accessors":[
		{
			"bufferView":0,
			"componentType":5126,
			"count":6410,
			"max":[
				1.1917728185653687,
				1.2575873136520386,
				1.108949899673462
			],
			"min":[
				-1.1917725801467896,
				-1.025306224822998,
				-1.2623218297958374
			],
			"type":"VEC3"
		},
		{
			"bufferView":1,
			"componentType":5126,
			"count":6410,
			"type":"VEC3"
		},
		{
			"bufferView":2,
			"componentType":5126,
			"count":6410,
			"type":"VEC2"
		},
		{
			"bufferView":3,
			"componentType":5123,
			"count":33492,
			"type":"SCALAR"
		},
		{
			"bufferView":4,
			"componentType":5126,
			"count":4325,
			"max":[
				0.9699506759643555,
				1.2575873136520386,
				1.163278341293335
			],
			"min":[
				-0.9699506759643555,
				-1.0026050806045532,
				-0.31642264127731323
			],
			"type":"VEC3"
		},
		{
			"bufferView":5,
			"componentType":5126,
			"count":4325,
			"type":"VEC3"
		},
		{
			"bufferView":6,
			"componentType":5126,
			"count":4325,
			"type":"VEC2"
		},
		{
			"bufferView":7,
			"componentType":5123,
			"count":23328,
			"type":"SCALAR"
		},
		{
			"bufferView":8,
			"componentType":5126,
			"count":10668,
			"max":[
				1.1917728185653687,
				1.2575873136520386,
				1.163278341293335
			],
			"min":[
				-1.1917725801467896,
				-1.025306224822998,
				-1.2623218297958374
			],
			"type":"VEC3"
		},
		{
			"bufferView":9,
			"componentType":5126,
			"count":10668,
			"type":"VEC3"
		},
		{
			"bufferView":10,
			"componentType":5126,
			"count":10668,
			"type":"VEC2"
		},
		{
			"bufferView":11,
			"componentType":5123,
			"count":56820,
			"type":"SCALAR"
		}
	],
	"bufferViews":[
		{
			"buffer":0,
			"byteLength":76920,
			"byteOffset":0,
			"target":34962
		},
		{
			"buffer":0,
			"byteLength":76920,
			"byteOffset":76920,
			"target":34962
		},
		{
			"buffer":0,
			"byteLength":51280,
			"byteOffset":153840,
			"target":34962
		},
		{
			"buffer":0,
			"byteLength":66984,
			"byteOffset":205120,
			"target":34963
		},
		{
			"buffer":0,
			"byteLength":51900,
			"byteOffset":272104,
			"target":34962
		},
		{
			"buffer":0,
			"byteLength":51900,
			"byteOffset":324004,
			"target":34962
		},
		{
			"buffer":0,
			"byteLength":34600,
			"byteOffset":375904,
			"target":34962
		},
		{
			"buffer":0,
			"byteLength":46656,
			"byteOffset":410504,
			"target":34963
		},
		{
			"buffer":0,
			"byteLength":128016,
			"byteOffset":457160,
			"target":34962
		},
		{
			"buffer":0,
			"byteLength":128016,
			"byteOffset":585176,
			"target":34962
		},
		{
			"buffer":0,
			"byteLength":85344,
			"byteOffset":713192,
			"target":34962
		},
		{
			"buffer":0,
			"byteLength":113640,
			"byteOffset":798536,
			"target":34963
		}
	],
	"samplers":[
		{
			"magFilter":9729,
			"minFilter":9987
		}
	],
	"buffers":[
		{
			"byteLength":912176,
			"uri":"penguin.bin"
		}
	]
}
