{
	"asset":{
		"generator":"Khronos glTF Blender I/O v4.3.47",
		"version":"2.0"
	},
	"scene":0,
	"scenes":[
		{
			"name":"Scene",
			"nodes":[
				0,
				1,
				2,
				3
			]
		}
	],
	"nodes":[
		{
			"mesh":0,
			"name":"\u5186\u67f1",
			"scale":[
				1,
				0.4431532025337219,
				1
			]
		},
		{
			"mesh":1,
			"name":"\u5186\u67f1.001",
			"rotation":[
				-0.10821978747844696,
				0.8454971313476562,
				0.18744218349456787,
				0.488148033618927
			],
			"scale":[
				0.07996243238449097,
				0.6065697073936462,
				0.07996243238449097
			],
			"translation":[
				0.6543676257133484,
				-0.8070798516273499,
				-0.30922257900238037
			]
		},
		{
			"mesh":2,
			"name":"\u5186\u67f1.002",
			"rotation":[
				-0.04357787221670151,
				-0.8627299070358276,
				-0.07547907531261444,
				0.49809738993644714
			],
			"scale":[
				0.07996243238449097,
				0.6065697073936462,
				0.07996243238449097
			],
			"translation":[
				-0.6546313166618347,
				-0.8070798516273499,
				-0.3113325834274292
			]
		},
		{
			"mesh":3,
			"name":"\u5186\u67f1.003",
			"rotation":[
				-0.08715574443340302,
				0,
				0,
				0.9961947202682495
			],
			"scale":[
				0.07996243238449097,
				0.6065697073936462,
				0.07996243238449097
			],
			"translation":[
				-0.0013187057338654995,
				-0.8070798516273499,
				0.7473660707473755
			]
		}
	],
	"materials":[
		{
			"doubleSided":true,
			"name":"\u30de\u30c6\u30ea\u30a2\u30eb",
			"pbrMetallicRoughness":{
				"baseColorFactor":[
					0.8005045056343079,
					0.6085555553436279,
					0,
					1
				],
				"metallicFactor":0,
				"roughnessFactor":0.7283464670181274
			}
		}
	],
	"meshes":[
		{
			"name":"\u5186\u67f1",
			"primitives":[
				{
					"attributes":{
						"POSITION":0,
						"NORMAL":1,
						"TEXCOORD_0":2
					},
					"indices":3,
					"material":0
				}
			]
		},
		{
			"name":"\u5186\u67f1.001",
			"primitives":[
				{
					"attributes":{
						"POSITION":4,
						"NORMAL":5,
						"TEXCOORD_0":6
					},
					"indices":7
				}
			]
		},
		{
			"name":"\u5186\u67f1.002",
			"primitives":[
				{
					"attributes":{
						"POSITION":8,
						"NORMAL":9,
						"TEXCOORD_0":10
					},
					"indices":7
				}
			]
		},
		{
			"name":"\u5186\u67f1.003",
			"primitives":[
				{
					"attributes":{
						"POSITION":11,
						"NORMAL":12,
						"TEXCOORD_0":13
					},
					"indices":7
				}
			]
		}
	],
	"accessors":[
		{
			"bufferView":0,
			"componentType":5126,
			"count":2063,
			"max":[
				0.9935951828956604,
				0.9962978363037109,
				0.9935951828956604
			],
			"min":[
				-0.9935951828956604,
				-0.9959603548049927,
				-0.9935952425003052
			],
			"type":"VEC3"
		},
		{
			"bufferView":1,
			"componentType":5126,
			"count":2063,
			"type":"VEC3"
		},
		{
			"bufferView":2,
			"componentType":5126,
			"count":2063,
			"type":"VEC2"
		},
		{
			"bufferView":3,
			"componentType":5123,
			"count":10752,
			"type":"SCALAR"
		},
		{
			"bufferView":4,
			"componentType":5126,
			"count":6420,
			"max":[
				0.9935951828956604,
				0.9984665513038635,
				0.9935951828956604
			],
			"min":[
				-0.9935951828956604,
				-0.9983692765235901,
				-0.9935952425003052
			],
			"type":"VEC3"
		},
		{
			"bufferView":5,
			"componentType":5126,
			"count":6420,
			"type":"VEC3"
		},
		{
			"bufferView":6,
			"componentType":5126,
			"count":6420,
			"type":"VEC2"
		},
		{
			"bufferView":7,
			"componentType":5123,
			"count":10752,
			"type":"SCALAR"
		},
		{
			"bufferView":8,
			"componentType":5126,
			"count":6420,
			"max":[
				0.9935951828956604,
				0.9984665513038635,
				0.9935951828956604
			],
			"min":[
				-0.9935951828956604,
				-0.9983692765235901,
				-0.9935952425003052
			],
			"type":"VEC3"
		},
		{
			"bufferView":9,
			"componentType":5126,
			"count":6420,
			"type":"VEC3"
		},
		{
			"bufferView":10,
			"componentType":5126,
			"count":6420,
			"type":"VEC2"
		},
		{
			"bufferView":11,
			"componentType":5126,
			"count":6420,
			"max":[
				0.9935951828956604,
				0.9984665513038635,
				0.9935951828956604
			],
			"min":[
				-0.9935951828956604,
				-0.9983692765235901,
				-0.9935952425003052
			],
			"type":"VEC3"
		},
		{
			"bufferView":12,
			"componentType":5126,
			"count":6420,
			"type":"VEC3"
		},
		{
			"bufferView":13,
			"componentType":5126,
			"count":6420,
			"type":"VEC2"
		}
	],
	"bufferViews":[
		{
			"buffer":0,
			"byteLength":24756,
			"byteOffset":0,
			"target":34962
		},
		{
			"buffer":0,
			"byteLength":24756,
			"byteOffset":24756,
			"target":34962
		},
		{
			"buffer":0,
			"byteLength":16504,
			"byteOffset":49512,
			"target":34962
		},
		{
			"buffer":0,
			"byteLength":21504,
			"byteOffset":66016,
			"target":34963
		},
		{
			"buffer":0,
			"byteLength":77040,
			"byteOffset":87520,
			"target":34962
		},
		{
			"buffer":0,
			"byteLength":77040,
			"byteOffset":164560,
			"target":34962
		},
		{
			"buffer":0,
			"byteLength":51360,
			"byteOffset":241600,
			"target":34962
		},
		{
			"buffer":0,
			"byteLength":21504,
			"byteOffset":292960,
			"target":34963
		},
		{
			"buffer":0,
			"byteLength":77040,
			"byteOffset":314464,
			"target":34962
		},
		{
			"buffer":0,
			"byteLength":77040,
			"byteOffset":391504,
			"target":34962
		},
		{
			"buffer":0,
			"byteLength":51360,
			"byteOffset":468544,
			"target":34962
		},
		{
			"buffer":0,
			"byteLength":77040,
			"byteOffset":519904,
			"target":34962
		},
		{
			"buffer":0,
			"byteLength":77040,
			"byteOffset":596944,
			"target":34962
		},
		{
			"buffer":0,
			"byteLength":51360,
			"byteOffset":673984,
			"target":34962
		}
	],
	"buffers":[
		{
			"byteLength":725344,
			"uri":"desk.bin"
		}
	]
}
