{
	"asset":{
		"generator":"Khronos glTF Blender I/O v5.0.21",
		"version":"2.0"
	},
	"scene":0,
	"scenes":[
		{
			"name":"Scene",
			"nodes":[
				0,
				1,
				2,
				3,
				4,
				5,
				6,
				7,
				8,
				9,
				10,
				11,
				12,
				13,
				14
			]
		}
	],
	"nodes":[
		{
			"mesh":0,
			"name":"\u7acb\u65b9\u4f53",
			"scale":[
				1.5447677373886108,
				1.5447677373886108,
				1.5447677373886108
			],
			"translation":[
				0,
				-0.016822610050439835,
				0
			]
		},
		{
			"mesh":1,
			"name":"\u7acb\u65b9\u4f53.001",
			"scale":[
				1.4901570081710815,
				1.4901570081710815,
				0.9929227232933044
			],
			"translation":[
				0,
				0.4878556728363037,
				0.9925338625907898
			]
		},
		{
			"mesh":2,
			"name":"\u5186",
			"rotation":[
				0,
				0,
				-0.7071068286895752,
				0.7071068286895752
			],
			"scale":[
				1.4270741939544678,
				2.8569767475128174,
				2.163630723953247
			],
			"translation":[
				-3.9635438919067383,
				3.2455344200134277,
				-0.14504164457321167
			]
		},
		{
			"mesh":3,
			"name":"\u5186.001",
			"rotation":[
				0.7071068286895752,
				-0.7071068286895752,
				0,
				3.090862321641907e-08
			],
			"scale":[
				1.4270741939544678,
				2.8569767475128174,
				2.163630723953247
			],
			"translation":[
				6.944887161254883,
				3.240600109100342,
				0.12905991077423096
			]
		},
		{
			"mesh":4,
			"name":"\u5186.002",
			"rotation":[
				0,
				0,
				-0.7071068286895752,
				0.7071068286895752
			],
			"scale":[
				1.4270741939544678,
				2.8569767475128174,
				2.163630723953247
			],
			"translation":[
				-3.9635438919067383,
				3.2455344200134277,
				-0.14504164457321167
			]
		},
		{
			"mesh":5,
			"name":"\u5186.003",
			"rotation":[
				0.7071068286895752,
				-0.7071068286895752,
				0,
				3.090862321641907e-08
			],
			"scale":[
				1.4270741939544678,
				2.8569767475128174,
				2.163630723953247
			],
			"translation":[
				6.944887161254883,
				3.240600109100342,
				0.12905991077423096
			]
		},
		{
			"mesh":6,
			"name":"\u5186.004",
			"rotation":[
				0.7071068286895752,
				-0.7071068286895752,
				0,
				3.090862321641907e-08
			],
			"scale":[
				1.4270741939544678,
				2.8569767475128174,
				2.163630723953247
			],
			"translation":[
				3.943934679031372,
				3.240600109100342,
				0.12905991077423096
			]
		},
		{
			"mesh":7,
			"name":"\u5186.005",
			"rotation":[
				0,
				0,
				-0.7071068286895752,
				0.7071068286895752
			],
			"scale":[
				1.4270741939544678,
				2.8569767475128174,
				2.163630723953247
			],
			"translation":[
				-6.96449613571167,
				3.2455344200134277,
				-0.14504164457321167
			]
		},
		{
			"mesh":8,
			"name":"\u5186.006",
			"rotation":[
				0.7071068286895752,
				-0.7071068286895752,
				0,
				3.090862321641907e-08
			],
			"scale":[
				1.4270741939544678,
				2.8569767475128174,
				2.163630723953247
			],
			"translation":[
				3.943934679031372,
				3.240600109100342,
				0.12905991077423096
			]
		},
		{
			"mesh":9,
			"name":"\u5186.007",
			"rotation":[
				0.7071068286895752,
				0,
				0,
				0.7071068286895752
			],
			"translation":[
				0.3499118685722351,
				-0.71358323097229,
				2.3560428619384766
			]
		},
		{
			"mesh":10,
			"name":"\u7403",
			"scale":[
				0.16573379933834076,
				0.16573379933834076,
				0.07882029563188553
			],
			"translation":[
				0,
				-0.7245914340019226,
				1.975883960723877
			]
		},
		{
			"mesh":11,
			"name":"\u5186.008",
			"rotation":[
				0.7071068286895752,
				0,
				0,
				0.7071068286895752
			],
			"translation":[
				-0.0813794732093811,
				-0.71358323097229,
				2.3560428619384766
			]
		},
		{
			"mesh":12,
			"name":"\u7403.001",
			"scale":[
				0.07376241683959961,
				0.07376241683959961,
				0.0350802019238472
			],
			"translation":[
				-0.7461199164390564,
				-0.7245914340019226,
				1.975883960723877
			]
		},
		{
			"mesh":13,
			"name":"\u7403.002",
			"scale":[
				0.07376241683959961,
				0.07376241683959961,
				0.0350802019238472
			],
			"translation":[
				-0.9583277702331543,
				-0.7245914340019226,
				1.975883960723877
			]
		},
		{
			"mesh":14,
			"name":"\u7403.003",
			"scale":[
				0.07376241683959961,
				0.07376241683959961,
				0.0350802019238472
			],
			"translation":[
				-1.1884989738464355,
				-0.7245914340019226,
				1.975883960723877
			]
		}
	],
	"materials":[
		{
			"doubleSided":true,
			"name":"\u30de\u30c6\u30ea\u30a2\u30eb.001",
			"pbrMetallicRoughness":{
				"baseColorFactor":[
					0.029112916439771652,
					0.029112916439771652,
					0.029112916439771652,
					1
				],
				"metallicFactor":0,
				"roughnessFactor":0.5
			}
		},
		{
			"doubleSided":true,
			"name":"\u30de\u30c6\u30ea\u30a2\u30eb",
			"pbrMetallicRoughness":{
				"baseColorFactor":[
					0.08332940936088562,
					0.08332940936088562,
					0.08332940936088562,
					1
				],
				"metallicFactor":0,
				"roughnessFactor":0.7990654110908508
			}
		},
		{
			"doubleSided":true,
			"name":"\u753b\u9762",
			"pbrMetallicRoughness":{
				"baseColorFactor":[
					0.13005979359149933,
					0.18909195065498352,
					0.1941053867340088,
					1
				],
				"metallicFactor":0,
				"roughnessFactor":0.5
			}
		},
		{
			"doubleSided":true,
			"name":"\u30de\u30c6\u30ea\u30a2\u30eb.002",
			"pbrMetallicRoughness":{
				"baseColorFactor":[
					0.019316425547003746,
					0.019316425547003746,
					0.019316425547003746,
					1
				],
				"metallicFactor":0,
				"roughnessFactor":0.5
			}
		}
	],
	"meshes":[
		{
			"name":"\u7acb\u65b9\u4f53",
			"primitives":[
				{
					"attributes":{
						"POSITION":0,
						"NORMAL":1,
						"TEXCOORD_0":2
					},
					"indices":3,
					"material":0
				}
			]
		},
		{
			"name":"\u7acb\u65b9\u4f53.001",
			"primitives":[
				{
					"attributes":{
						"POSITION":4,
						"NORMAL":5,
						"TEXCOORD_0":6
					},
					"indices":7,
					"material":1
				},
				{
					"attributes":{
						"POSITION":8,
						"NORMAL":9,
						"TEXCOORD_0":10
					},
					"indices":11,
					"material":2
				}
			]
		},
		{
			"name":"\u5186",
			"primitives":[
				{
					"attributes":{
						"POSITION":12,
						"NORMAL":13,
						"TEXCOORD_0":14
					},
					"indices":15,
					"material":1
				}
			]
		},
		{
			"name":"\u5186.001",
			"primitives":[
				{
					"attributes":{
						"POSITION":16,
						"NORMAL":17,
						"TEXCOORD_0":18
					},
					"indices":15,
					"material":0
				}
			]
		},
		{
			"name":"\u5186.002",
			"primitives":[
				{
					"attributes":{
						"POSITION":19,
						"NORMAL":20,
						"TEXCOORD_0":21
					},
					"indices":15,
					"material":1
				}
			]
		},
		{
			"name":"\u5186.003",
			"primitives":[
				{
					"attributes":{
						"POSITION":22,
						"NORMAL":23,
						"TEXCOORD_0":24
					},
					"indices":15,
					"material":0
				}
			]
		},
		{
			"name":"\u5186.004",
			"primitives":[
				{
					"attributes":{
						"POSITION":25,
						"NORMAL":26,
						"TEXCOORD_0":27
					},
					"indices":15,
					"material":0
				}
			]
		},
		{
			"name":"\u5186.005",
			"primitives":[
				{
					"attributes":{
						"POSITION":28,
						"NORMAL":29,
						"TEXCOORD_0":30
					},
					"indices":15,
					"material":1
				}
			]
		},
		{
			"name":"\u5186.006",
			"primitives":[
				{
					"attributes":{
						"POSITION":31,
						"NORMAL":32,
						"TEXCOORD_0":33
					},
					"indices":15,
					"material":0
				}
			]
		},
		{
			"name":"\u5186.007",
			"primitives":[
				{
					"attributes":{
						"POSITION":34,
						"NORMAL":35,
						"TEXCOORD_0":36
					},
					"indices":37,
					"material":3
				}
			]
		},
		{
			"name":"\u7403",
			"primitives":[
				{
					"attributes":{
						"POSITION":38,
						"NORMAL":39,
						"TEXCOORD_0":40
					},
					"indices":41,
					"material":2
				}
			]
		},
		{
			"name":"\u5186.009",
			"primitives":[
				{
					"attributes":{
						"POSITION":42,
						"NORMAL":43,
						"TEXCOORD_0":44
					},
					"indices":37,
					"material":3
				}
			]
		},
		{
			"name":"\u7403.001",
			"primitives":[
				{
					"attributes":{
						"POSITION":45,
						"NORMAL":46,
						"TEXCOORD_0":47
					},
					"indices":41,
					"material":3
				}
			]
		},
		{
			"name":"\u7403.002",
			"primitives":[
				{
					"attributes":{
						"POSITION":48,
						"NORMAL":49,
						"TEXCOORD_0":50
					},
					"indices":41,
					"material":3
				}
			]
		},
		{
			"name":"\u7403.003",
			"primitives":[
				{
					"attributes":{
						"POSITION":51,
						"NORMAL":52,
						"TEXCOORD_0":53
					},
					"indices":41,
					"material":3
				}
			]
		}
	],
	"accessors":[
		{
			"bufferView":0,
			"componentType":5126,
			"count":536,
			"max":[
				0.9455611705780029,
				1.2613728046417236,
				-0.001885286532342434
			],
			"min":[
				-0.9455611705780029,
				-0.6300050020217896,
				-1.3855981826782227
			],
			"type":"VEC3"
		},
		{
			"bufferView":1,
			"componentType":5126,
			"count":536,
			"type":"VEC3"
		},
		{
			"bufferView":2,
			"componentType":5126,
			"count":536,
			"type":"VEC2"
		},
		{
			"bufferView":3,
			"componentType":5123,
			"count":828,
			"type":"SCALAR"
		},
		{
			"bufferView":4,
			"componentType":5126,
			"count":324,
			"max":[
				1,
				1,
				1.0103851556777954
			],
			"min":[
				-1,
				-1,
				-1
			],
			"type":"VEC3"
		},
		{
			"bufferView":5,
			"componentType":5126,
			"count":324,
			"type":"VEC3"
		},
		{
			"bufferView":6,
			"componentType":5126,
			"count":324,
			"type":"VEC2"
		},
		{
			"bufferView":7,
			"componentType":5123,
			"count":504,
			"type":"SCALAR"
		},
		{
			"bufferView":8,
			"componentType":5126,
			"count":4,
			"max":[
				0.8416513800621033,
				0.8766639232635498,
				0.970798134803772
			],
			"min":[
				-0.8416513800621033,
				-0.2228807806968689,
				0.9658066630363464
			],
			"type":"VEC3"
		},
		{
			"bufferView":9,
			"componentType":5126,
			"count":4,
			"type":"VEC3"
		},
		{
			"bufferView":10,
			"componentType":5126,
			"count":4,
			"type":"VEC2"
		},
		{
			"bufferView":11,
			"componentType":5123,
			"count":6,
			"type":"SCALAR"
		},
		{
			"bufferView":12,
			"componentType":5126,
			"count":354,
			"max":[
				2.3545587062835693,
				1.9266220331192017,
				0.4228186011314392
			],
			"min":[
				1.549072504043579,
				1.8987540006637573,
				0.06598882377147675
			],
			"type":"VEC3"
		},
		{
			"bufferView":13,
			"componentType":5126,
			"count":354,
			"type":"VEC3"
		},
		{
			"bufferView":14,
			"componentType":5126,
			"count":354,
			"type":"VEC2"
		},
		{
			"bufferView":15,
			"componentType":5123,
			"count":696,
			"type":"SCALAR"
		},
		{
			"bufferView":16,
			"componentType":5126,
			"count":354,
			"max":[
				2.3545587062835693,
				1.9266220331192017,
				0.4228186011314392
			],
			"min":[
				1.549072504043579,
				1.8987540006637573,
				0.06598882377147675
			],
			"type":"VEC3"
		},
		{
			"bufferView":17,
			"componentType":5126,
			"count":354,
			"type":"VEC3"
		},
		{
			"bufferView":18,
			"componentType":5126,
			"count":354,
			"type":"VEC2"
		},
		{
			"bufferView":19,
			"componentType":5126,
			"count":354,
			"max":[
				2.3545587062835693,
				1.9266220331192017,
				0.4228186011314392
			],
			"min":[
				1.549072504043579,
				1.8987540006637573,
				0.06598882377147675
			],
			"type":"VEC3"
		},
		{
			"bufferView":20,
			"componentType":5126,
			"count":354,
			"type":"VEC3"
		},
		{
			"bufferView":21,
			"componentType":5126,
			"count":354,
			"type":"VEC2"
		},
		{
			"bufferView":22,
			"componentType":5126,
			"count":354,
			"max":[
				2.3545587062835693,
				1.9266220331192017,
				0.4228186011314392
			],
			"min":[
				1.549072504043579,
				1.8987540006637573,
				0.06598882377147675
			],
			"type":"VEC3"
		},
		{
			"bufferView":23,
			"componentType":5126,
			"count":354,
			"type":"VEC3"
		},
		{
			"bufferView":24,
			"componentType":5126,
			"count":354,
			"type":"VEC2"
		},
		{
			"bufferView":25,
			"componentType":5126,
			"count":354,
			"max":[
				2.3545587062835693,
				1.9266220331192017,
				0.4228186011314392
			],
			"min":[
				1.549072504043579,
				1.8987540006637573,
				0.06598882377147675
			],
			"type":"VEC3"
		},
		{
			"bufferView":26,
			"componentType":5126,
			"count":354,
			"type":"VEC3"
		},
		{
			"bufferView":27,
			"componentType":5126,
			"count":354,
			"type":"VEC2"
		},
		{
			"bufferView":28,
			"componentType":5126,
			"count":354,
			"max":[
				2.3545587062835693,
				1.9266220331192017,
				0.4228186011314392
			],
			"min":[
				1.549072504043579,
				1.8987540006637573,
				0.06598882377147675
			],
			"type":"VEC3"
		},
		{
			"bufferView":29,
			"componentType":5126,
			"count":354,
			"type":"VEC3"
		},
		{
			"bufferView":30,
			"componentType":5126,
			"count":354,
			"type":"VEC2"
		},
		{
			"bufferView":31,
			"componentType":5126,
			"count":354,
			"max":[
				2.3545587062835693,
				1.9266220331192017,
				0.4228186011314392
			],
			"min":[
				1.549072504043579,
				1.8987540006637573,
				0.06598882377147675
			],
			"type":"VEC3"
		},
		{
			"bufferView":32,
			"componentType":5126,
			"count":354,
			"type":"VEC3"
		},
		{
			"bufferView":33,
			"componentType":5126,
			"count":354,
			"type":"VEC2"
		},
		{
			"bufferView":34,
			"componentType":5126,
			"count":320,
			"max":[
				0.9207724332809448,
				-0.3141298294067383,
				0.08509831130504608
			],
			"min":[
				0.5504383444786072,
				-0.4140501320362091,
				-0.0680743083357811
			],
			"type":"VEC3"
		},
		{
			"bufferView":35,
			"componentType":5126,
			"count":320,
			"type":"VEC3"
		},
		{
			"bufferView":36,
			"componentType":5126,
			"count":320,
			"type":"VEC2"
		},
		{
			"bufferView":37,
			"componentType":5123,
			"count":564,
			"type":"SCALAR"
		},
		{
			"bufferView":38,
			"componentType":5126,
			"count":1984,
			"max":[
				0.9999997019767761,
				1,
				0.9999993443489075
			],
			"min":[
				-0.9999990463256836,
				-1,
				-1
			],
			"type":"VEC3"
		},
		{
			"bufferView":39,
			"componentType":5126,
			"count":1984,
			"type":"VEC3"
		},
		{
			"bufferView":40,
			"componentType":5126,
			"count":1984,
			"type":"VEC2"
		},
		{
			"bufferView":41,
			"componentType":5123,
			"count":2880,
			"type":"SCALAR"
		},
		{
			"bufferView":42,
			"componentType":5126,
			"count":320,
			"max":[
				0.9207724332809448,
				-0.3141298294067383,
				0.08509831130504608
			],
			"min":[
				0.5504383444786072,
				-0.4140501320362091,
				-0.0680743083357811
			],
			"type":"VEC3"
		},
		{
			"bufferView":43,
			"componentType":5126,
			"count":320,
			"type":"VEC3"
		},
		{
			"bufferView":44,
			"componentType":5126,
			"count":320,
			"type":"VEC2"
		},
		{
			"bufferView":45,
			"componentType":5126,
			"count":1984,
			"max":[
				0.9999997019767761,
				1,
				0.9999993443489075
			],
			"min":[
				-0.9999990463256836,
				-1,
				-1
			],
			"type":"VEC3"
		},
		{
			"bufferView":46,
			"componentType":5126,
			"count":1984,
			"type":"VEC3"
		},
		{
			"bufferView":47,
			"componentType":5126,
			"count":1984,
			"type":"VEC2"
		},
		{
			"bufferView":48,
			"componentType":5126,
			"count":1984,
			"max":[
				0.9999997019767761,
				1,
				0.9999993443489075
			],
			"min":[
				-0.9999990463256836,
				-1,
				-1
			],
			"type":"VEC3"
		},
		{
			"bufferView":49,
			"componentType":5126,
			"count":1984,
			"type":"VEC3"
		},
		{
			"bufferView":50,
			"componentType":5126,
			"count":1984,
			"type":"VEC2"
		},
		{
			"bufferView":51,
			"componentType":5126,
			"count":1984,
			"max":[
				0.9999997019767761,
				1,
				0.9999993443489075
			],
			"min":[
				-0.9999990463256836,
				-1,
				-1
			],
			"type":"VEC3"
		},
		{
			"bufferView":52,
			"componentType":5126,
			"count":1984,
			"type":"VEC3"
		},
		{
			"bufferView":53,
			"componentType":5126,
			"count":1984,
			"type":"VEC2"
		}
	],
	"bufferViews":[
		{
			"buffer":0,
			"byteLength":6432,
			"byteOffset":0,
			"target":34962
		},
		{
			"buffer":0,
			"byteLength":6432,
			"byteOffset":6432,
			"target":34962
		},
		{
			"buffer":0,
			"byteLength":4288,
			"byteOffset":12864,
			"target":34962
		},
		{
			"buffer":0,
			"byteLength":1656,
			"byteOffset":17152,
			"target":34963
		},
		{
			"buffer":0,
			"byteLength":3888,
			"byteOffset":18808,
			"target":34962
		},
		{
			"buffer":0,
			"byteLength":3888,
			"byteOffset":22696,
			"target":34962
		},
		{
			"buffer":0,
			"byteLength":2592,
			"byteOffset":26584,
			"target":34962
		},
		{
			"buffer":0,
			"byteLength":1008,
			"byteOffset":29176,
			"target":34963
		},
		{
			"buffer":0,
			"byteLength":48,
			"byteOffset":30184,
			"target":34962
		},
		{
			"buffer":0,
			"byteLength":48,
			"byteOffset":30232,
			"target":34962
		},
		{
			"buffer":0,
			"byteLength":32,
			"byteOffset":30280,
			"target":34962
		},
		{
			"buffer":0,
			"byteLength":12,
			"byteOffset":30312,
			"target":34963
		},
		{
			"buffer":0,
			"byteLength":4248,
			"byteOffset":30324,
			"target":34962
		},
		{
			"buffer":0,
			"byteLength":4248,
			"byteOffset":34572,
			"target":34962
		},
		{
			"buffer":0,
			"byteLength":2832,
			"byteOffset":38820,
			"target":34962
		},
		{
			"buffer":0,
			"byteLength":1392,
			"byteOffset":41652,
			"target":34963
		},
		{
			"buffer":0,
			"byteLength":4248,
			"byteOffset":43044,
			"target":34962
		},
		{
			"buffer":0,
			"byteLength":4248,
			"byteOffset":47292,
			"target":34962
		},
		{
			"buffer":0,
			"byteLength":2832,
			"byteOffset":51540,
			"target":34962
		},
		{
			"buffer":0,
			"byteLength":4248,
			"byteOffset":54372,
			"target":34962
		},
		{
			"buffer":0,
			"byteLength":4248,
			"byteOffset":58620,
			"target":34962
		},
		{
			"buffer":0,
			"byteLength":2832,
			"byteOffset":62868,
			"target":34962
		},
		{
			"buffer":0,
			"byteLength":4248,
			"byteOffset":65700,
			"target":34962
		},
		{
			"buffer":0,
			"byteLength":4248,
			"byteOffset":69948,
			"target":34962
		},
		{
			"buffer":0,
			"byteLength":2832,
			"byteOffset":74196,
			"target":34962
		},
		{
			"buffer":0,
			"byteLength":4248,
			"byteOffset":77028,
			"target":34962
		},
		{
			"buffer":0,
			"byteLength":4248,
			"byteOffset":81276,
			"target":34962
		},
		{
			"buffer":0,
			"byteLength":2832,
			"byteOffset":85524,
			"target":34962
		},
		{
			"buffer":0,
			"byteLength":4248,
			"byteOffset":88356,
			"target":34962
		},
		{
			"buffer":0,
			"byteLength":4248,
			"byteOffset":92604,
			"target":34962
		},
		{
			"buffer":0,
			"byteLength":2832,
			"byteOffset":96852,
			"target":34962
		},
		{
			"buffer":0,
			"byteLength":4248,
			"byteOffset":99684,
			"target":34962
		},
		{
			"buffer":0,
			"byteLength":4248,
			"byteOffset":103932,
			"target":34962
		},
		{
			"buffer":0,
			"byteLength":2832,
			"byteOffset":108180,
			"target":34962
		},
		{
			"buffer":0,
			"byteLength":3840,
			"byteOffset":111012,
			"target":34962
		},
		{
			"buffer":0,
			"byteLength":3840,
			"byteOffset":114852,
			"target":34962
		},
		{
			"buffer":0,
			"byteLength":2560,
			"byteOffset":118692,
			"target":34962
		},
		{
			"buffer":0,
			"byteLength":1128,
			"byteOffset":121252,
			"target":34963
		},
		{
			"buffer":0,
			"byteLength":23808,
			"byteOffset":122380,
			"target":34962
		},
		{
			"buffer":0,
			"byteLength":23808,
			"byteOffset":146188,
			"target":34962
		},
		{
			"buffer":0,
			"byteLength":15872,
			"byteOffset":169996,
			"target":34962
		},
		{
			"buffer":0,
			"byteLength":5760,
			"byteOffset":185868,
			"target":34963
		},
		{
			"buffer":0,
			"byteLength":3840,
			"byteOffset":191628,
			"target":34962
		},
		{
			"buffer":0,
			"byteLength":3840,
			"byteOffset":195468,
			"target":34962
		},
		{
			"buffer":0,
			"byteLength":2560,
			"byteOffset":199308,
			"target":34962
		},
		{
			"buffer":0,
			"byteLength":23808,
			"byteOffset":201868,
			"target":34962
		},
		{
			"buffer":0,
			"byteLength":23808,
			"byteOffset":225676,
			"target":34962
		},
		{
			"buffer":0,
			"byteLength":15872,
			"byteOffset":249484,
			"target":34962
		},
		{
			"buffer":0,
			"byteLength":23808,
			"byteOffset":265356,
			"target":34962
		},
		{
			"buffer":0,
			"byteLength":23808,
			"byteOffset":289164,
			"target":34962
		},
		{
			"buffer":0,
			"byteLength":15872,
			"byteOffset":312972,
			"target":34962
		},
		{
			"buffer":0,
			"byteLength":23808,
			"byteOffset":328844,
			"target":34962
		},
		{
			"buffer":0,
			"byteLength":23808,
			"byteOffset":352652,
			"target":34962
		},
		{
			"buffer":0,
			"byteLength":15872,
			"byteOffset":376460,
			"target":34962
		}
	],
	"buffers":[
		{
			"byteLength":392332,
			"uri":"tv.bin"
		}
	]
}
