{
	"asset":{
		"generator":"Khronos glTF Blender I/O v5.0.21",
		"version":"2.0"
	},
	"scene":0,
	"scenes":[
		{
			"name":"Scene",
			"nodes":[
				0,
				1,
				2,
				3
			]
		}
	],
	"nodes":[
		{
			"mesh":0,
			"name":"\u7acb\u65b9\u4f53",
			"scale":[
				2.2976973056793213,
				1,
				0.20288708806037903
			]
		},
		{
			"mesh":1,
			"name":"\u7acb\u65b9\u4f53.001",
			"rotation":[
				0,
				-1,
				0,
				4.371138828673793e-08
			],
			"scale":[
				2.2976973056793213,
				1,
				0.20288708806037903
			],
			"translation":[
				0.8292975425720215,
				0,
				0
			]
		},
		{
			"mesh":2,
			"name":"\u7acb\u65b9\u4f53.002",
			"rotation":[
				0,
				-1,
				0,
				4.371138828673793e-08
			],
			"scale":[
				2.3549156188964844,
				1,
				0.20288707315921783
			],
			"translation":[
				0.8407062888145447,
				0,
				0
			]
		},
		{
			"mesh":3,
			"name":"\u7acb\u65b9\u4f53.003",
			"rotation":[
				-0.7071764469146729,
				0.7070371508598328,
				0,
				1.803571691993966e-08
			],
			"scale":[
				2.507272481918335,
				1.5570073127746582,
				0.2567773759365082
			],
			"translation":[
				0.21289610862731934,
				-0.24939237534999847,
				0
			]
		}
	],
	"materials":[
		{
			"doubleSided":true,
			"name":"\u30de\u30c6\u30ea\u30a2\u30eb.002",
			"pbrMetallicRoughness":{
				"baseColorFactor":[
					0.14520595967769623,
					0.13871465623378754,
					0.8000074625015259,
					1
				],
				"metallicFactor":0,
				"roughnessFactor":0.5
			}
		},
		{
			"doubleSided":true,
			"name":"\u30de\u30c6\u30ea\u30a2\u30eb.001",
			"pbrMetallicRoughness":{
				"baseColorFactor":[
					0.8000074625015259,
					0.07208818197250366,
					0.06683005392551422,
					1
				],
				"metallicFactor":0,
				"roughnessFactor":0.5
			}
		},
		{
			"doubleSided":true,
			"name":"\u30de\u30c6\u30ea\u30a2\u30eb",
			"pbrMetallicRoughness":{
				"baseColorFactor":[
					0.0123208686709404,
					0.0123208686709404,
					0.0123208686709404,
					1
				],
				"metallicFactor":0,
				"roughnessFactor":0.5
			}
		}
	],
	"meshes":[
		{
			"name":"\u7acb\u65b9\u4f53",
			"primitives":[
				{
					"attributes":{
						"POSITION":0,
						"NORMAL":1,
						"TEXCOORD_0":2
					},
					"indices":3,
					"material":0
				}
			]
		},
		{
			"name":"\u7acb\u65b9\u4f53.002",
			"primitives":[
				{
					"attributes":{
						"POSITION":4,
						"NORMAL":5,
						"TEXCOORD_0":6
					},
					"indices":7,
					"material":1
				}
			]
		},
		{
			"name":"\u7acb\u65b9\u4f53.003",
			"primitives":[
				{
					"attributes":{
						"POSITION":8,
						"NORMAL":9,
						"TEXCOORD_0":10
					},
					"indices":11,
					"material":2
				}
			]
		},
		{
			"name":"\u7acb\u65b9\u4f53.004",
			"primitives":[
				{
					"attributes":{
						"POSITION":12,
						"NORMAL":13,
						"TEXCOORD_0":14
					},
					"indices":15,
					"material":2
				}
			]
		}
	],
	"accessors":[
		{
			"bufferView":0,
			"componentType":5126,
			"count":592,
			"max":[
				-0.4684000611305237,
				1,
				0.9999999403953552
			],
			"min":[
				-0.7512267231941223,
				-1,
				-1
			],
			"type":"VEC3"
		},
		{
			"bufferView":1,
			"componentType":5126,
			"count":592,
			"type":"VEC3"
		},
		{
			"bufferView":2,
			"componentType":5126,
			"count":592,
			"type":"VEC2"
		},
		{
			"bufferView":3,
			"componentType":5123,
			"count":948,
			"type":"SCALAR"
		},
		{
			"bufferView":4,
			"componentType":5126,
			"count":592,
			"max":[
				-0.32427147030830383,
				1,
				1
			],
			"min":[
				-0.6071131825447083,
				-1,
				-0.9999999403953552
			],
			"type":"VEC3"
		},
		{
			"bufferView":5,
			"componentType":5126,
			"count":592,
			"type":"VEC3"
		},
		{
			"bufferView":6,
			"componentType":5126,
			"count":592,
			"type":"VEC2"
		},
		{
			"bufferView":7,
			"componentType":5123,
			"count":948,
			"type":"SCALAR"
		},
		{
			"bufferView":8,
			"componentType":5126,
			"count":120,
			"max":[
				0.8077653646469116,
				0.9825947880744934,
				0.9999595880508423
			],
			"min":[
				-0.3058490455150604,
				-1.0002344846725464,
				-1.002462387084961
			],
			"type":"VEC3"
		},
		{
			"bufferView":9,
			"componentType":5126,
			"count":120,
			"type":"VEC3"
		},
		{
			"bufferView":10,
			"componentType":5126,
			"count":120,
			"type":"VEC2"
		},
		{
			"bufferView":11,
			"componentType":5123,
			"count":228,
			"type":"SCALAR"
		},
		{
			"bufferView":12,
			"componentType":5126,
			"count":164,
			"max":[
				0.3129953145980835,
				1.0002906322479248,
				0.9999999403953552
			],
			"min":[
				-0.36082565784454346,
				-0.9999217391014099,
				-1.0000001192092896
			],
			"type":"VEC3"
		},
		{
			"bufferView":13,
			"componentType":5126,
			"count":164,
			"type":"VEC3"
		},
		{
			"bufferView":14,
			"componentType":5126,
			"count":164,
			"type":"VEC2"
		},
		{
			"bufferView":15,
			"componentType":5123,
			"count":282,
			"type":"SCALAR"
		}
	],
	"bufferViews":[
		{
			"buffer":0,
			"byteLength":7104,
			"byteOffset":0,
			"target":34962
		},
		{
			"buffer":0,
			"byteLength":7104,
			"byteOffset":7104,
			"target":34962
		},
		{
			"buffer":0,
			"byteLength":4736,
			"byteOffset":14208,
			"target":34962
		},
		{
			"buffer":0,
			"byteLength":1896,
			"byteOffset":18944,
			"target":34963
		},
		{
			"buffer":0,
			"byteLength":7104,
			"byteOffset":20840,
			"target":34962
		},
		{
			"buffer":0,
			"byteLength":7104,
			"byteOffset":27944,
			"target":34962
		},
		{
			"buffer":0,
			"byteLength":4736,
			"byteOffset":35048,
			"target":34962
		},
		{
			"buffer":0,
			"byteLength":1896,
			"byteOffset":39784,
			"target":34963
		},
		{
			"buffer":0,
			"byteLength":1440,
			"byteOffset":41680,
			"target":34962
		},
		{
			"buffer":0,
			"byteLength":1440,
			"byteOffset":43120,
			"target":34962
		},
		{
			"buffer":0,
			"byteLength":960,
			"byteOffset":44560,
			"target":34962
		},
		{
			"buffer":0,
			"byteLength":456,
			"byteOffset":45520,
			"target":34963
		},
		{
			"buffer":0,
			"byteLength":1968,
			"byteOffset":45976,
			"target":34962
		},
		{
			"buffer":0,
			"byteLength":1968,
			"byteOffset":47944,
			"target":34962
		},
		{
			"buffer":0,
			"byteLength":1312,
			"byteOffset":49912,
			"target":34962
		},
		{
			"buffer":0,
			"byteLength":564,
			"byteOffset":51224,
			"target":34963
		}
	],
	"buffers":[
		{
			"byteLength":51788,
			"uri":"game.bin"
		}
	]
}
