{
	"asset":{
		"generator":"Khronos glTF Blender I/O v5.0.21",
		"version":"2.0"
	},
	"extensionsUsed":[
		"KHR_materials_specular"
	],
	"scene":0,
	"scenes":[
		{
			"name":"Scene",
			"nodes":[
				0
			]
		}
	],
	"nodes":[
		{
			"mesh":0,
			"name":"texture_pbr_v128",
			"rotation":[
				-1,
				0,
				0,
				7.549789415861596e-08
			],
			"scale":[
				0.009999999776482582,
				0.009999999776482582,
				0.009999999776482582
			]
		}
	],
	"materials":[
		{
			"doubleSided":true,
			"extensions":{
				"KHR_materials_specular":{
					"specularColorFactor":[
						2.0,
						2.0,
						2.0
					]
				}
			},
			"name":"Material.002",
			"normalTexture":{
				"index":0
			},
			"pbrMetallicRoughness":{
				"baseColorTexture":{
					"index":1
				},
				"metallicRoughnessTexture":{
					"index":2
				}
			}
		}
	],
	"meshes":[
		{
			"name":"texture_pbr_v128.002",
			"primitives":[
				{
					"attributes":{
						"POSITION":0,
						"NORMAL":1,
						"TEXCOORD_0":2
					},
					"indices":3,
					"material":0
				}
			]
		}
	],
	"textures":[
		{
			"sampler":0,
			"source":0
		},
		{
			"sampler":0,
			"source":1
		},
		{
			"sampler":0,
			"source":2
		}
	],
	"images":[
		{
			"mimeType":"image/png",
			"name":"texture_pbr_v128_normal",
			"uri":"texture_pbr_v128_normal.png"
		},
		{
			"mimeType":"image/png",
			"name":"texture_pbr_v128",
			"uri":"texture_pbr_v128.png"
		},
		{
			"mimeType":"image/png",
			"name":"texture_pbr_v128_metallic-texture_pbr_v128_roughness",
			"uri":"texture_pbr_v128_metallic-texture_pbr_v128_roughness.png"
		}
	],
	"accessors":[
		{
			"bufferView":0,
			"componentType":5126,
			"count":297333,
			"max":[
				39.40230178833008,
				55.72239685058594,
				23.106199264526367
			],
			"min":[
				-39.40230178833008,
				-55.646400451660156,
				-23.43589973449707
			],
			"type":"VEC3"
		},
		{
			"bufferView":1,
			"componentType":5126,
			"count":297333,
			"type":"VEC3"
		},
		{
			"bufferView":2,
			"componentType":5126,
			"count":297333,
			"type":"VEC2"
		},
		{
			"bufferView":3,
			"componentType":5125,
			"count":1500000,
			"type":"SCALAR"
		}
	],
	"bufferViews":[
		{
			"buffer":0,
			"byteLength":3567996,
			"byteOffset":0,
			"target":34962
		},
		{
			"buffer":0,
			"byteLength":3567996,
			"byteOffset":3567996,
			"target":34962
		},
		{
			"buffer":0,
			"byteLength":2378664,
			"byteOffset":7135992,
			"target":34962
		},
		{
			"buffer":0,
			"byteLength":6000000,
			"byteOffset":9514656,
			"target":34963
		}
	],
	"samplers":[
		{
			"magFilter":9729,
			"minFilter":9987
		}
	],
	"buffers":[
		{
			"byteLength":15514656,
			"uri":"statue.bin"
		}
	]
}
