{
	"asset":{
		"generator":"Khronos glTF Blender I/O v5.0.21",
		"version":"2.0"
	},
	"scene":0,
	"scenes":[
		{
			"name":"Scene",
			"nodes":[
				0,
				1,
				2,
				3,
				4,
				5
			]
		}
	],
	"nodes":[
		{
			"mesh":0,
			"name":"Cube",
			"scale":[
				1.6939553022384644,
				2.9946556091308594,
				1.6939553022384644
			],
			"translation":[
				0,
				-0.09166465699672699,
				0
			]
		},
		{
			"mesh":1,
			"name":"Cube.001",
			"rotation":[
				0,
				0,
				-0.7071068286895752,
				0.7071068286895752
			],
			"scale":[
				0.7103684544563293,
				1.6742899417877197,
				1.6564942598342896
			],
			"translation":[
				0.009774565696716309,
				2.1441452503204346,
				0.0023629367351531982
			]
		},
		{
			"mesh":2,
			"name":"Cube.002",
			"rotation":[
				0,
				0,
				-0.7071068286895752,
				0.7071068286895752
			],
			"scale":[
				0.7103684544563293,
				1.6742899417877197,
				1.6564942598342896
			],
			"translation":[
				0.009774565696716309,
				0.9705603122711182,
				0.0023629367351531982
			]
		},
		{
			"mesh":3,
			"name":"Cube.003",
			"rotation":[
				0,
				0,
				-0.7071068286895752,
				0.7071068286895752
			],
			"scale":[
				0.7103684544563293,
				1.6742899417877197,
				1.6564942598342896
			],
			"translation":[
				0.009774565696716309,
				-0.2099689245223999,
				0.0023629367351531982
			]
		},
		{
			"mesh":4,
			"name":"Cube.004",
			"rotation":[
				0,
				0,
				-0.7071068286895752,
				0.7071068286895752
			],
			"scale":[
				0.7103684544563293,
				1.6742899417877197,
				1.6564942598342896
			],
			"translation":[
				0.009774565696716309,
				-1.390498161315918,
				0.0023629367351531982
			]
		},
		{
			"mesh":5,
			"name":"Cube.005",
			"rotation":[
				0,
				0,
				-0.7071068286895752,
				0.7071068286895752
			],
			"scale":[
				0.7103684544563293,
				1.6742899417877197,
				1.6564942598342896
			],
			"translation":[
				0.009774565696716309,
				-2.5821385383605957,
				0.0023629367351531982
			]
		}
	],
	"materials":[
		{
			"doubleSided":true,
			"name":"Material",
			"pbrMetallicRoughness":{
				"baseColorFactor":[
					0.6770757436752319,
					0.5629445314407349,
					0.48088932037353516,
					1
				],
				"metallicFactor":0,
				"roughnessFactor":0.5
			}
		},
		{
			"doubleSided":true,
			"name":"Material.001",
			"pbrMetallicRoughness":{
				"baseColorFactor":[
					0.6770883798599243,
					0.6561294794082642,
					0.6397475600242615,
					1
				],
				"metallicFactor":0,
				"roughnessFactor":0.5
			}
		}
	],
	"meshes":[
		{
			"name":"Cube",
			"primitives":[
				{
					"attributes":{
						"POSITION":0,
						"NORMAL":1,
						"TEXCOORD_0":2
					},
					"indices":3,
					"material":0
				}
			]
		},
		{
			"name":"Cube.002",
			"primitives":[
				{
					"attributes":{
						"POSITION":4,
						"NORMAL":5,
						"TEXCOORD_0":6,
						"TEXCOORD_1":7
					},
					"indices":8,
					"material":1
				}
			]
		},
		{
			"name":"Cube.003",
			"primitives":[
				{
					"attributes":{
						"POSITION":9,
						"NORMAL":10,
						"TEXCOORD_0":11,
						"TEXCOORD_1":12
					},
					"indices":8,
					"material":1
				}
			]
		},
		{
			"name":"Cube.004",
			"primitives":[
				{
					"attributes":{
						"POSITION":13,
						"NORMAL":14,
						"TEXCOORD_0":15,
						"TEXCOORD_1":16
					},
					"indices":8,
					"material":1
				}
			]
		},
		{
			"name":"Cube.005",
			"primitives":[
				{
					"attributes":{
						"POSITION":17,
						"NORMAL":18,
						"TEXCOORD_0":19,
						"TEXCOORD_1":20
					},
					"indices":8,
					"material":1
				}
			]
		},
		{
			"name":"Cube.006",
			"primitives":[
				{
					"attributes":{
						"POSITION":21,
						"NORMAL":22,
						"TEXCOORD_0":23,
						"TEXCOORD_1":24
					},
					"indices":8,
					"material":1
				}
			]
		}
	],
	"accessors":[
		{
			"bufferView":0,
			"componentType":5126,
			"count":56,
			"max":[
				1,
				1,
				1
			],
			"min":[
				-0.99226975440979,
				-1,
				-1
			],
			"type":"VEC3"
		},
		{
			"bufferView":1,
			"componentType":5126,
			"count":56,
			"type":"VEC3"
		},
		{
			"bufferView":2,
			"componentType":5126,
			"count":56,
			"type":"VEC2"
		},
		{
			"bufferView":3,
			"componentType":5123,
			"count":84,
			"type":"SCALAR"
		},
		{
			"bufferView":4,
			"componentType":5126,
			"count":326,
			"max":[
				0.6775898337364197,
				1,
				1
			],
			"min":[
				-0.99226975440979,
				-1,
				-1
			],
			"type":"VEC3"
		},
		{
			"bufferView":5,
			"componentType":5126,
			"count":326,
			"type":"VEC3"
		},
		{
			"bufferView":6,
			"componentType":5126,
			"count":326,
			"type":"VEC2"
		},
		{
			"bufferView":7,
			"componentType":5126,
			"count":326,
			"type":"VEC2"
		},
		{
			"bufferView":8,
			"componentType":5123,
			"count":606,
			"type":"SCALAR"
		},
		{
			"bufferView":9,
			"componentType":5126,
			"count":326,
			"max":[
				0.6775898337364197,
				1,
				1
			],
			"min":[
				-0.99226975440979,
				-1,
				-1
			],
			"type":"VEC3"
		},
		{
			"bufferView":10,
			"componentType":5126,
			"count":326,
			"type":"VEC3"
		},
		{
			"bufferView":11,
			"componentType":5126,
			"count":326,
			"type":"VEC2"
		},
		{
			"bufferView":12,
			"componentType":5126,
			"count":326,
			"type":"VEC2"
		},
		{
			"bufferView":13,
			"componentType":5126,
			"count":326,
			"max":[
				0.6775898337364197,
				1,
				1
			],
			"min":[
				-0.99226975440979,
				-1,
				-1
			],
			"type":"VEC3"
		},
		{
			"bufferView":14,
			"componentType":5126,
			"count":326,
			"type":"VEC3"
		},
		{
			"bufferView":15,
			"componentType":5126,
			"count":326,
			"type":"VEC2"
		},
		{
			"bufferView":16,
			"componentType":5126,
			"count":326,
			"type":"VEC2"
		},
		{
			"bufferView":17,
			"componentType":5126,
			"count":326,
			"max":[
				0.6775898337364197,
				1,
				1
			],
			"min":[
				-0.99226975440979,
				-1,
				-1
			],
			"type":"VEC3"
		},
		{
			"bufferView":18,
			"componentType":5126,
			"count":326,
			"type":"VEC3"
		},
		{
			"bufferView":19,
			"componentType":5126,
			"count":326,
			"type":"VEC2"
		},
		{
			"bufferView":20,
			"componentType":5126,
			"count":326,
			"type":"VEC2"
		},
		{
			"bufferView":21,
			"componentType":5126,
			"count":326,
			"max":[
				0.6775898337364197,
				1,
				1
			],
			"min":[
				-0.99226975440979,
				-1,
				-1
			],
			"type":"VEC3"
		},
		{
			"bufferView":22,
			"componentType":5126,
			"count":326,
			"type":"VEC3"
		},
		{
			"bufferView":23,
			"componentType":5126,
			"count":326,
			"type":"VEC2"
		},
		{
			"bufferView":24,
			"componentType":5126,
			"count":326,
			"type":"VEC2"
		}
	],
	"bufferViews":[
		{
			"buffer":0,
			"byteLength":672,
			"byteOffset":0,
			"target":34962
		},
		{
			"buffer":0,
			"byteLength":672,
			"byteOffset":672,
			"target":34962
		},
		{
			"buffer":0,
			"byteLength":448,
			"byteOffset":1344,
			"target":34962
		},
		{
			"buffer":0,
			"byteLength":168,
			"byteOffset":1792,
			"target":34963
		},
		{
			"buffer":0,
			"byteLength":3912,
			"byteOffset":1960,
			"target":34962
		},
		{
			"buffer":0,
			"byteLength":3912,
			"byteOffset":5872,
			"target":34962
		},
		{
			"buffer":0,
			"byteLength":2608,
			"byteOffset":9784,
			"target":34962
		},
		{
			"buffer":0,
			"byteLength":2608,
			"byteOffset":12392,
			"target":34962
		},
		{
			"buffer":0,
			"byteLength":1212,
			"byteOffset":15000,
			"target":34963
		},
		{
			"buffer":0,
			"byteLength":3912,
			"byteOffset":16212,
			"target":34962
		},
		{
			"buffer":0,
			"byteLength":3912,
			"byteOffset":20124,
			"target":34962
		},
		{
			"buffer":0,
			"byteLength":2608,
			"byteOffset":24036,
			"target":34962
		},
		{
			"buffer":0,
			"byteLength":2608,
			"byteOffset":26644,
			"target":34962
		},
		{
			"buffer":0,
			"byteLength":3912,
			"byteOffset":29252,
			"target":34962
		},
		{
			"buffer":0,
			"byteLength":3912,
			"byteOffset":33164,
			"target":34962
		},
		{
			"buffer":0,
			"byteLength":2608,
			"byteOffset":37076,
			"target":34962
		},
		{
			"buffer":0,
			"byteLength":2608,
			"byteOffset":39684,
			"target":34962
		},
		{
			"buffer":0,
			"byteLength":3912,
			"byteOffset":42292,
			"target":34962
		},
		{
			"buffer":0,
			"byteLength":3912,
			"byteOffset":46204,
			"target":34962
		},
		{
			"buffer":0,
			"byteLength":2608,
			"byteOffset":50116,
			"target":34962
		},
		{
			"buffer":0,
			"byteLength":2608,
			"byteOffset":52724,
			"target":34962
		},
		{
			"buffer":0,
			"byteLength":3912,
			"byteOffset":55332,
			"target":34962
		},
		{
			"buffer":0,
			"byteLength":3912,
			"byteOffset":59244,
			"target":34962
		},
		{
			"buffer":0,
			"byteLength":2608,
			"byteOffset":63156,
			"target":34962
		},
		{
			"buffer":0,
			"byteLength":2608,
			"byteOffset":65764,
			"target":34962
		}
	],
	"buffers":[
		{
			"byteLength":68372,
			"uri":"drawer.bin"
		}
	]
}
