{
	"asset":{
		"generator":"Khronos glTF Blender I/O v5.0.21",
		"version":"2.0"
	},
	"scene":0,
	"scenes":[
		{
			"name":"Scene",
			"nodes":[
				0,
				1,
				2,
				3,
				4
			]
		}
	],
	"nodes":[
		{
			"mesh":0,
			"name":"Cube",
			"scale":[
				2.984173536300659,
				0.2816680669784546,
				1.692765712738037
			],
			"translation":[
				0,
				-0.08225476741790771,
				-0.022339895367622375
			]
		},
		{
			"mesh":1,
			"name":"Cube.001",
			"scale":[
				2.8847761154174805,
				0.16911597549915314,
				1.6363826990127563
			],
			"translation":[
				0,
				0.3493763208389282,
				-0.022339895367622375
			]
		},
		{
			"mesh":2,
			"name":"\u7acb\u65b9\u4f53.001",
			"scale":[
				0.13397210836410522,
				1.208985686302185,
				1.6962541341781616
			],
			"translation":[
				-3.130488872528076,
				0.23537516593933105,
				-0.022339895367622375
			]
		},
		{
			"mesh":3,
			"name":"\u5e73\u9762",
			"scale":[
				2.561736583709717,
				1,
				1.7093636989593506
			],
			"translation":[
				0.4141205847263336,
				0.5416673421859741,
				-0.022339895367622375
			]
		},
		{
			"mesh":4,
			"name":"\u7acb\u65b9\u4f53",
			"scale":[
				0.40341195464134216,
				0.09983211010694504,
				0.8962641358375549
			],
			"translation":[
				-2.5897998809814453,
				0.5684818625450134,
				0.026642069220542908
			]
		}
	],
	"materials":[
		{
			"doubleSided":true,
			"name":"Material",
			"pbrMetallicRoughness":{
				"baseColorFactor":[
					0.4798329174518585,
					0.49198898673057556,
					0.6211579442024231,
					1
				],
				"metallicFactor":0,
				"roughnessFactor":0.5
			}
		},
		{
			"doubleSided":true,
			"name":"\u30de\u30c6\u30ea\u30a2\u30eb.001",
			"pbrMetallicRoughness":{
				"baseColorTexture":{
					"index":0
				},
				"metallicFactor":0,
				"roughnessFactor":0.5
			}
		},
		{
			"doubleSided":true,
			"name":"\u30de\u30c6\u30ea\u30a2\u30eb",
			"pbrMetallicRoughness":{
				"baseColorFactor":[
					0.8000074625015259,
					0.19620144367218018,
					0.17746305465698242,
					1
				],
				"metallicFactor":0,
				"roughnessFactor":0.5
			}
		},
		{
			"doubleSided":true,
			"name":"\u30de\u30c6\u30ea\u30a2\u30eb.002",
			"pbrMetallicRoughness":{
				"baseColorFactor":[
					0.800000011920929,
					0.800000011920929,
					0.800000011920929,
					1
				],
				"metallicFactor":0,
				"roughnessFactor":0.5
			}
		},
		{
			"doubleSided":true,
			"name":"\u30de\u30c6\u30ea\u30a2\u30eb.003",
			"pbrMetallicRoughness":{
				"baseColorFactor":[
					0.3077858090400696,
					0.6138570308685303,
					0.8000074625015259,
					1
				],
				"metallicFactor":0,
				"roughnessFactor":0.5
			}
		}
	],
	"meshes":[
		{
			"name":"Cube",
			"primitives":[
				{
					"attributes":{
						"POSITION":0,
						"NORMAL":1,
						"TEXCOORD_0":2
					},
					"indices":3,
					"material":0
				}
			]
		},
		{
			"name":"Cube.001",
			"primitives":[
				{
					"attributes":{
						"POSITION":4,
						"NORMAL":5,
						"TEXCOORD_0":6
					},
					"indices":3,
					"material":0
				}
			]
		},
		{
			"name":"\u7acb\u65b9\u4f53.001",
			"primitives":[
				{
					"attributes":{
						"POSITION":7,
						"NORMAL":8,
						"TEXCOORD_0":9
					},
					"indices":10,
					"material":1
				}
			]
		},
		{
			"name":"\u5e73\u9762",
			"primitives":[
				{
					"attributes":{
						"POSITION":11,
						"NORMAL":12,
						"TEXCOORD_0":13
					},
					"indices":14,
					"material":2
				}
			]
		},
		{
			"name":"\u7acb\u65b9\u4f53.004",
			"primitives":[
				{
					"attributes":{
						"POSITION":15,
						"NORMAL":16,
						"TEXCOORD_0":17
					},
					"indices":18,
					"material":3
				},
				{
					"attributes":{
						"POSITION":19,
						"NORMAL":20,
						"TEXCOORD_0":21
					},
					"indices":22,
					"material":4
				}
			]
		}
	],
	"textures":[
		{
			"sampler":0,
			"source":0
		}
	],
	"images":[
		{
			"mimeType":"image/jpeg",
			"name":"oak_veneer_01_diff_4k",
			"uri":"oak_veneer_01_diff_4k.jpg"
		}
	],
	"accessors":[
		{
			"bufferView":0,
			"componentType":5126,
			"count":2073,
			"max":[
				0.9973065853118896,
				1.0000001192092896,
				0.9957792162895203
			],
			"min":[
				-0.997772753238678,
				-1.0000001192092896,
				-0.9965582489967346
			],
			"type":"VEC3"
		},
		{
			"bufferView":1,
			"componentType":5126,
			"count":2073,
			"type":"VEC3"
		},
		{
			"bufferView":2,
			"componentType":5126,
			"count":2073,
			"type":"VEC2"
		},
		{
			"bufferView":3,
			"componentType":5123,
			"count":11520,
			"type":"SCALAR"
		},
		{
			"bufferView":4,
			"componentType":5126,
			"count":2073,
			"max":[
				0.9973065853118896,
				1.0000001192092896,
				0.9957792162895203
			],
			"min":[
				-0.997772753238678,
				-1.0000001192092896,
				-0.9965582489967346
			],
			"type":"VEC3"
		},
		{
			"bufferView":5,
			"componentType":5126,
			"count":2073,
			"type":"VEC3"
		},
		{
			"bufferView":6,
			"componentType":5126,
			"count":2073,
			"type":"VEC2"
		},
		{
			"bufferView":7,
			"componentType":5126,
			"count":828,
			"max":[
				45.77040481567383,
				1,
				1.0015588998794556
			],
			"min":[
				-0.9999980330467224,
				-1.0092650651931763,
				-1.0015588998794556
			],
			"type":"VEC3"
		},
		{
			"bufferView":8,
			"componentType":5126,
			"count":828,
			"type":"VEC3"
		},
		{
			"bufferView":9,
			"componentType":5126,
			"count":828,
			"type":"VEC2"
		},
		{
			"bufferView":10,
			"componentType":5123,
			"count":1656,
			"type":"SCALAR"
		},
		{
			"bufferView":11,
			"componentType":5126,
			"count":9,
			"max":[
				1,
				0,
				1
			],
			"min":[
				-1,
				0,
				-1
			],
			"type":"VEC3"
		},
		{
			"bufferView":12,
			"componentType":5126,
			"count":9,
			"type":"VEC3"
		},
		{
			"bufferView":13,
			"componentType":5126,
			"count":9,
			"type":"VEC2"
		},
		{
			"bufferView":14,
			"componentType":5123,
			"count":24,
			"type":"SCALAR"
		},
		{
			"bufferView":15,
			"componentType":5126,
			"count":64,
			"max":[
				1,
				1,
				1
			],
			"min":[
				-1,
				-1,
				-1
			],
			"type":"VEC3"
		},
		{
			"bufferView":16,
			"componentType":5126,
			"count":64,
			"type":"VEC3"
		},
		{
			"bufferView":17,
			"componentType":5126,
			"count":64,
			"type":"VEC2"
		},
		{
			"bufferView":18,
			"componentType":5123,
			"count":132,
			"type":"SCALAR"
		},
		{
			"bufferView":19,
			"componentType":5126,
			"count":24,
			"max":[
				1,
				1,
				0.8213333487510681
			],
			"min":[
				-1,
				-1,
				-0.8281661868095398
			],
			"type":"VEC3"
		},
		{
			"bufferView":20,
			"componentType":5126,
			"count":24,
			"type":"VEC3"
		},
		{
			"bufferView":21,
			"componentType":5126,
			"count":24,
			"type":"VEC2"
		},
		{
			"bufferView":22,
			"componentType":5123,
			"count":48,
			"type":"SCALAR"
		}
	],
	"bufferViews":[
		{
			"buffer":0,
			"byteLength":24876,
			"byteOffset":0,
			"target":34962
		},
		{
			"buffer":0,
			"byteLength":24876,
			"byteOffset":24876,
			"target":34962
		},
		{
			"buffer":0,
			"byteLength":16584,
			"byteOffset":49752,
			"target":34962
		},
		{
			"buffer":0,
			"byteLength":23040,
			"byteOffset":66336,
			"target":34963
		},
		{
			"buffer":0,
			"byteLength":24876,
			"byteOffset":89376,
			"target":34962
		},
		{
			"buffer":0,
			"byteLength":24876,
			"byteOffset":114252,
			"target":34962
		},
		{
			"buffer":0,
			"byteLength":16584,
			"byteOffset":139128,
			"target":34962
		},
		{
			"buffer":0,
			"byteLength":9936,
			"byteOffset":155712,
			"target":34962
		},
		{
			"buffer":0,
			"byteLength":9936,
			"byteOffset":165648,
			"target":34962
		},
		{
			"buffer":0,
			"byteLength":6624,
			"byteOffset":175584,
			"target":34962
		},
		{
			"buffer":0,
			"byteLength":3312,
			"byteOffset":182208,
			"target":34963
		},
		{
			"buffer":0,
			"byteLength":108,
			"byteOffset":185520,
			"target":34962
		},
		{
			"buffer":0,
			"byteLength":108,
			"byteOffset":185628,
			"target":34962
		},
		{
			"buffer":0,
			"byteLength":72,
			"byteOffset":185736,
			"target":34962
		},
		{
			"buffer":0,
			"byteLength":48,
			"byteOffset":185808,
			"target":34963
		},
		{
			"buffer":0,
			"byteLength":768,
			"byteOffset":185856,
			"target":34962
		},
		{
			"buffer":0,
			"byteLength":768,
			"byteOffset":186624,
			"target":34962
		},
		{
			"buffer":0,
			"byteLength":512,
			"byteOffset":187392,
			"target":34962
		},
		{
			"buffer":0,
			"byteLength":264,
			"byteOffset":187904,
			"target":34963
		},
		{
			"buffer":0,
			"byteLength":288,
			"byteOffset":188168,
			"target":34962
		},
		{
			"buffer":0,
			"byteLength":288,
			"byteOffset":188456,
			"target":34962
		},
		{
			"buffer":0,
			"byteLength":192,
			"byteOffset":188744,
			"target":34962
		},
		{
			"buffer":0,
			"byteLength":96,
			"byteOffset":188936,
			"target":34963
		}
	],
	"samplers":[
		{
			"magFilter":9729,
			"minFilter":9987
		}
	],
	"buffers":[
		{
			"byteLength":189032,
			"uri":"bed.bin"
		}
	]
}
