{
	"asset":{
		"generator":"Khronos glTF Blender I/O v5.0.21",
		"version":"2.0"
	},
	"scene":0,
	"scenes":[
		{
			"name":"Scene",
			"nodes":[
				0,
				1,
				2,
				3
			]
		}
	],
	"nodes":[
		{
			"mesh":0,
			"name":"\u5186\u67f1",
			"rotation":[
				0.7071068286895752,
				-0.7071068286895752,
				0,
				0
			],
			"scale":[
				-2.2866978645324707,
				-0.247059166431427,
				-2.2866978645324707
			]
		},
		{
			"mesh":1,
			"name":"\u5186\u67f1.001",
			"rotation":[
				0.5080718398094177,
				0,
				0,
				0.8613148331642151
			],
			"scale":[
				0.024706244468688965,
				1.0927494764328003,
				0.024706244468688965
			],
			"translation":[
				-0.06472659111022949,
				0,
				0
			]
		},
		{
			"mesh":2,
			"name":"\u5186\u67f1.002",
			"rotation":[
				-0.442490816116333,
				0,
				0,
				0.896773099899292
			],
			"scale":[
				0.0472712442278862,
				0.6857838034629822,
				0.0472712405025959
			]
		},
		{
			"mesh":3,
			"name":"\u5186\u67f1.003",
			"rotation":[
				0,
				0,
				-0.7071068286895752,
				0.7071068286895752
			],
			"scale":[
				0.0421346090734005,
				0.15216176211833954,
				0.0421346090734005
			],
			"translation":[
				-0.07669100165367126,
				0,
				0
			]
		}
	],
	"materials":[
		{
			"doubleSided":true,
			"name":"\u30de\u30c6\u30ea\u30a2\u30eb",
			"pbrMetallicRoughness":{
				"baseColorTexture":{
					"index":0
				},
				"metallicFactor":0,
				"roughnessFactor":0.5
			}
		},
		{
			"doubleSided":true,
			"name":"\u30de\u30c6\u30ea\u30a2\u30eb.001",
			"pbrMetallicRoughness":{
				"baseColorFactor":[
					0.7601459622383118,
					0.7601459622383118,
					0.7601459622383118,
					1
				],
				"roughnessFactor":0.5
			}
		}
	],
	"meshes":[
		{
			"name":"\u5186\u67f1",
			"primitives":[
				{
					"attributes":{
						"POSITION":0,
						"NORMAL":1,
						"TEXCOORD_0":2
					},
					"indices":3,
					"material":0
				}
			]
		},
		{
			"name":"\u5186\u67f1.001",
			"primitives":[
				{
					"attributes":{
						"POSITION":4,
						"NORMAL":5,
						"TEXCOORD_0":6
					},
					"indices":7,
					"material":1
				}
			]
		},
		{
			"name":"\u5186\u67f1.002",
			"primitives":[
				{
					"attributes":{
						"POSITION":8,
						"NORMAL":9,
						"TEXCOORD_0":10
					},
					"indices":7,
					"material":1
				}
			]
		},
		{
			"name":"\u5186\u67f1.003",
			"primitives":[
				{
					"attributes":{
						"POSITION":11,
						"NORMAL":12,
						"TEXCOORD_0":13
					},
					"indices":7
				}
			]
		}
	],
	"textures":[
		{
			"sampler":0,
			"source":0
		}
	],
	"images":[
		{
			"mimeType":"image/png",
			"name":"Plugin icon - 1",
			"uri":"Plugin%20icon%20-%201.png"
		}
	],
	"accessors":[
		{
			"bufferView":0,
			"componentType":5126,
			"count":4178,
			"max":[
				0.9935951828956604,
				0.996833860874176,
				0.9935951828956604
			],
			"min":[
				-0.9935951828956604,
				-0.8554100394248962,
				-0.9935951828956604
			],
			"type":"VEC3"
		},
		{
			"bufferView":1,
			"componentType":5126,
			"count":4178,
			"type":"VEC3"
		},
		{
			"bufferView":2,
			"componentType":5126,
			"count":4178,
			"type":"VEC2"
		},
		{
			"bufferView":3,
			"componentType":5123,
			"count":23418,
			"type":"SCALAR"
		},
		{
			"bufferView":4,
			"componentType":5126,
			"count":192,
			"max":[
				1,
				1.8268468379974365,
				1
			],
			"min":[
				-1,
				-0.17315322160720825,
				-1
			],
			"type":"VEC3"
		},
		{
			"bufferView":5,
			"componentType":5126,
			"count":192,
			"type":"VEC3"
		},
		{
			"bufferView":6,
			"componentType":5126,
			"count":192,
			"type":"VEC2"
		},
		{
			"bufferView":7,
			"componentType":5123,
			"count":372,
			"type":"SCALAR"
		},
		{
			"bufferView":8,
			"componentType":5126,
			"count":192,
			"max":[
				1,
				1.7528705596923828,
				1
			],
			"min":[
				-1,
				-0.24712949991226196,
				-1
			],
			"type":"VEC3"
		},
		{
			"bufferView":9,
			"componentType":5126,
			"count":192,
			"type":"VEC3"
		},
		{
			"bufferView":10,
			"componentType":5126,
			"count":192,
			"type":"VEC2"
		},
		{
			"bufferView":11,
			"componentType":5126,
			"count":192,
			"max":[
				1,
				1,
				1
			],
			"min":[
				-1,
				-1,
				-1
			],
			"type":"VEC3"
		},
		{
			"bufferView":12,
			"componentType":5126,
			"count":192,
			"type":"VEC3"
		},
		{
			"bufferView":13,
			"componentType":5126,
			"count":192,
			"type":"VEC2"
		}
	],
	"bufferViews":[
		{
			"buffer":0,
			"byteLength":50136,
			"byteOffset":0,
			"target":34962
		},
		{
			"buffer":0,
			"byteLength":50136,
			"byteOffset":50136,
			"target":34962
		},
		{
			"buffer":0,
			"byteLength":33424,
			"byteOffset":100272,
			"target":34962
		},
		{
			"buffer":0,
			"byteLength":46836,
			"byteOffset":133696,
			"target":34963
		},
		{
			"buffer":0,
			"byteLength":2304,
			"byteOffset":180532,
			"target":34962
		},
		{
			"buffer":0,
			"byteLength":2304,
			"byteOffset":182836,
			"target":34962
		},
		{
			"buffer":0,
			"byteLength":1536,
			"byteOffset":185140,
			"target":34962
		},
		{
			"buffer":0,
			"byteLength":744,
			"byteOffset":186676,
			"target":34963
		},
		{
			"buffer":0,
			"byteLength":2304,
			"byteOffset":187420,
			"target":34962
		},
		{
			"buffer":0,
			"byteLength":2304,
			"byteOffset":189724,
			"target":34962
		},
		{
			"buffer":0,
			"byteLength":1536,
			"byteOffset":192028,
			"target":34962
		},
		{
			"buffer":0,
			"byteLength":2304,
			"byteOffset":193564,
			"target":34962
		},
		{
			"buffer":0,
			"byteLength":2304,
			"byteOffset":195868,
			"target":34962
		},
		{
			"buffer":0,
			"byteLength":1536,
			"byteOffset":198172,
			"target":34962
		}
	],
	"samplers":[
		{
			"magFilter":9729,
			"minFilter":9987
		}
	],
	"buffers":[
		{
			"byteLength":199708,
			"uri":"clock.bin"
		}
	]
}
