{
	"asset":{
		"generator":"Khronos glTF Blender I/O v5.0.21",
		"version":"2.0"
	},
	"scene":0,
	"scenes":[
		{
			"name":"Scene",
			"nodes":[
				0,
				1
			]
		}
	],
	"nodes":[
		{
			"mesh":0,
			"name":"cornet"
		},
		{
			"mesh":1,
			"name":"chocolate"
		}
	],
	"materials":[
		{
			"alphaMode":"BLEND",
			"doubleSided":true,
			"name":"cormet",
			"normalTexture":{
				"index":0
			},
			"pbrMetallicRoughness":{
				"baseColorTexture":{
					"index":1
				},
				"metallicFactor":0,
				"metallicRoughnessTexture":{
					"index":2
				}
			}
		}
	],
	"meshes":[
		{
			"name":"Cube.001",
			"primitives":[
				{
					"attributes":{
						"POSITION":0,
						"NORMAL":1,
						"TEXCOORD_0":2
					},
					"indices":3,
					"material":0
				}
			]
		},
		{
			"name":"\u7403",
			"primitives":[
				{
					"attributes":{
						"POSITION":4,
						"NORMAL":5,
						"TEXCOORD_0":6
					},
					"indices":7,
					"material":0
				}
			]
		}
	],
	"textures":[
		{
			"sampler":0,
			"source":0
		},
		{
			"sampler":0,
			"source":1
		},
		{
			"sampler":0,
			"source":2
		}
	],
	"images":[
		{
			"mimeType":"image/png",
			"name":"DefaultMaterial_Normal",
			"uri":"DefaultMaterial_Normal.png"
		},
		{
			"mimeType":"image/png",
			"name":"DefaultMaterial_Base_color",
			"uri":"DefaultMaterial_Base_color.png"
		},
		{
			"mimeType":"image/png",
			"name":"DefaultMaterial_Roughness",
			"uri":"DefaultMaterial_Roughness.png"
		}
	],
	"accessors":[
		{
			"bufferView":0,
			"componentType":5126,
			"count":4739,
			"max":[
				3.7308907508850098,
				2.150998115539551,
				1.3980979919433594
			],
			"min":[
				-1.1549725532531738,
				0.11875319480895996,
				-1.3887072801589966
			],
			"type":"VEC3"
		},
		{
			"bufferView":1,
			"componentType":5126,
			"count":4739,
			"type":"VEC3"
		},
		{
			"bufferView":2,
			"componentType":5126,
			"count":4739,
			"type":"VEC2"
		},
		{
			"bufferView":3,
			"componentType":5123,
			"count":24576,
			"type":"SCALAR"
		},
		{
			"bufferView":4,
			"componentType":5126,
			"count":219,
			"max":[
				-0.1607227921485901,
				1.6670992374420166,
				0.7723585963249207
			],
			"min":[
				-1.2204893827438354,
				0.3122759461402893,
				-0.8151816725730896
			],
			"type":"VEC3"
		},
		{
			"bufferView":5,
			"componentType":5126,
			"count":219,
			"type":"VEC3"
		},
		{
			"bufferView":6,
			"componentType":5126,
			"count":219,
			"type":"VEC2"
		},
		{
			"bufferView":7,
			"componentType":5123,
			"count":1080,
			"type":"SCALAR"
		}
	],
	"bufferViews":[
		{
			"buffer":0,
			"byteLength":56868,
			"byteOffset":0,
			"target":34962
		},
		{
			"buffer":0,
			"byteLength":56868,
			"byteOffset":56868,
			"target":34962
		},
		{
			"buffer":0,
			"byteLength":37912,
			"byteOffset":113736,
			"target":34962
		},
		{
			"buffer":0,
			"byteLength":49152,
			"byteOffset":151648,
			"target":34963
		},
		{
			"buffer":0,
			"byteLength":2628,
			"byteOffset":200800,
			"target":34962
		},
		{
			"buffer":0,
			"byteLength":2628,
			"byteOffset":203428,
			"target":34962
		},
		{
			"buffer":0,
			"byteLength":1752,
			"byteOffset":206056,
			"target":34962
		},
		{
			"buffer":0,
			"byteLength":2160,
			"byteOffset":207808,
			"target":34963
		}
	],
	"samplers":[
		{
			"magFilter":9729,
			"minFilter":9987
		}
	],
	"buffers":[
		{
			"byteLength":209968,
			"uri":"coromet.bin"
		}
	]
}
