{
	"asset":{
		"generator":"Khronos glTF Blender I/O v5.0.21",
		"version":"2.0"
	},
	"scene":0,
	"scenes":[
		{
			"name":"Scene",
			"nodes":[
				0
			]
		}
	],
	"nodes":[
		{
			"mesh":0,
			"name":"Meshy_AI_shrimp_0117102023_texture",
			"rotation":[
				0.7071068286895752,
				0,
				0,
				0.7071068286895752
			]
		}
	],
	"materials":[
		{
			"doubleSided":true,
			"name":"Material.001",
			"pbrMetallicRoughness":{
				"baseColorTexture":{
					"index":0
				},
				"metallicFactor":0,
				"roughnessFactor":0.5
			}
		}
	],
	"meshes":[
		{
			"name":"Meshy_AI_shrimp_0117102023_texture",
			"primitives":[
				{
					"attributes":{
						"POSITION":0,
						"NORMAL":1,
						"TEXCOORD_0":2
					},
					"indices":3,
					"material":0
				}
			]
		}
	],
	"textures":[
		{
			"sampler":0,
			"source":0
		}
	],
	"images":[
		{
			"mimeType":"image/png",
			"name":"Meshy_AI_shrimp_0117102023_texture",
			"uri":"Meshy_AI_shrimp_0117102023_texture.png"
		}
	],
	"accessors":[
		{
			"bufferView":0,
			"componentType":5126,
			"count":244667,
			"max":[
				0.9720110297203064,
				1.000432014465332,
				0.31213900446891785
			],
			"min":[
				-0.9731870293617249,
				-1.0005630254745483,
				-0.3106189966201782
			],
			"type":"VEC3"
		},
		{
			"bufferView":1,
			"componentType":5126,
			"count":244667,
			"type":"VEC3"
		},
		{
			"bufferView":2,
			"componentType":5126,
			"count":244667,
			"type":"VEC2"
		},
		{
			"bufferView":3,
			"componentType":5125,
			"count":1370910,
			"type":"SCALAR"
		}
	],
	"bufferViews":[
		{
			"buffer":0,
			"byteLength":2936004,
			"byteOffset":0,
			"target":34962
		},
		{
			"buffer":0,
			"byteLength":2936004,
			"byteOffset":2936004,
			"target":34962
		},
		{
			"buffer":0,
			"byteLength":1957336,
			"byteOffset":5872008,
			"target":34962
		},
		{
			"buffer":0,
			"byteLength":5483640,
			"byteOffset":7829344,
			"target":34963
		}
	],
	"samplers":[
		{
			"magFilter":9729,
			"minFilter":9987
		}
	],
	"buffers":[
		{
			"byteLength":13312984,
			"uri":"shrimp.bin"
		}
	]
}
