{
	"asset":{
		"generator":"Khronos glTF Blender I/O v5.0.21",
		"version":"2.0"
	},
	"scene":0,
	"scenes":[
		{
			"name":"Scene",
			"nodes":[
				0,
				1,
				2,
				3
			]
		}
	],
	"nodes":[
		{
			"mesh":0,
			"name":"\u5186\u67f1"
		},
		{
			"mesh":1,
			"name":"\u5186\u67f1.001",
			"rotation":[
				-0.11241824924945831,
				0.8622618913650513,
				-0.023423921316862106,
				0.49327266216278076
			],
			"scale":[
				0.047997016459703445,
				1.7032420635223389,
				0.047997016459703445
			],
			"translation":[
				-0.24897360801696777,
				2.078808069229126,
				-0.11809678375720978
			]
		},
		{
			"mesh":2,
			"name":"\u5186\u67f1.002",
			"rotation":[
				-0.06292849034070969,
				0.26091474294662476,
				-0.09605491906404495,
				0.9585076570510864
			],
			"scale":[
				0.047997016459703445,
				1.7032420635223389,
				0.047997016459703445
			],
			"translation":[
				0.2507797181606293,
				2.078808069229126,
				-0.11618484556674957
			]
		},
		{
			"mesh":3,
			"name":"\u5186\u67f1.003",
			"rotation":[
				0.07649483531713486,
				-0.8583175539970398,
				-0.08564509451389313,
				0.5001044273376465
			],
			"scale":[
				0.047997016459703445,
				1.7032420635223389,
				0.047997016459703445
			],
			"translation":[
				-0.01877461187541485,
				2.078808069229126,
				0.26556819677352905
			]
		}
	],
	"materials":[
		{
			"doubleSided":true,
			"name":"\u30de\u30c6\u30ea\u30a2\u30eb",
			"pbrMetallicRoughness":{
				"baseColorFactor":[
					0.4892442524433136,
					0.7143435478210449,
					0.8000156879425049,
					1
				],
				"metallicFactor":0,
				"roughnessFactor":0.5
			}
		},
		{
			"doubleSided":true,
			"name":"\u30de\u30c6\u30ea\u30a2\u30eb.001",
			"pbrMetallicRoughness":{
				"baseColorFactor":[
					0.03803523629903793,
					0.02055661380290985,
					0.0048329513520002365,
					1
				],
				"metallicFactor":0,
				"roughnessFactor":0.8738317489624023
			}
		}
	],
	"meshes":[
		{
			"name":"\u5186\u67f1",
			"primitives":[
				{
					"attributes":{
						"POSITION":0,
						"NORMAL":1,
						"TEXCOORD_0":2
					},
					"indices":3,
					"material":0
				}
			]
		},
		{
			"name":"\u5186\u67f1.001",
			"primitives":[
				{
					"attributes":{
						"POSITION":4,
						"NORMAL":5,
						"TEXCOORD_0":6
					},
					"indices":7,
					"material":1
				}
			]
		},
		{
			"name":"\u5186\u67f1.002",
			"primitives":[
				{
					"attributes":{
						"POSITION":8,
						"NORMAL":9,
						"TEXCOORD_0":10
					},
					"indices":7,
					"material":1
				}
			]
		},
		{
			"name":"\u5186\u67f1.003",
			"primitives":[
				{
					"attributes":{
						"POSITION":11,
						"NORMAL":12,
						"TEXCOORD_0":13
					},
					"indices":7,
					"material":1
				}
			]
		}
	],
	"accessors":[
		{
			"bufferView":0,
			"componentType":5126,
			"count":624,
			"max":[
				1,
				1.8482807874679565,
				1
			],
			"min":[
				-1,
				-0.5589340925216675,
				-1
			],
			"type":"VEC3"
		},
		{
			"bufferView":1,
			"componentType":5126,
			"count":624,
			"type":"VEC3"
		},
		{
			"bufferView":2,
			"componentType":5126,
			"count":624,
			"type":"VEC2"
		},
		{
			"bufferView":3,
			"componentType":5123,
			"count":2778,
			"type":"SCALAR"
		},
		{
			"bufferView":4,
			"componentType":5126,
			"count":192,
			"max":[
				1,
				1,
				1
			],
			"min":[
				-1,
				-1,
				-1
			],
			"type":"VEC3"
		},
		{
			"bufferView":5,
			"componentType":5126,
			"count":192,
			"type":"VEC3"
		},
		{
			"bufferView":6,
			"componentType":5126,
			"count":192,
			"type":"VEC2"
		},
		{
			"bufferView":7,
			"componentType":5123,
			"count":372,
			"type":"SCALAR"
		},
		{
			"bufferView":8,
			"componentType":5126,
			"count":192,
			"max":[
				1,
				1,
				1
			],
			"min":[
				-1,
				-1,
				-1
			],
			"type":"VEC3"
		},
		{
			"bufferView":9,
			"componentType":5126,
			"count":192,
			"type":"VEC3"
		},
		{
			"bufferView":10,
			"componentType":5126,
			"count":192,
			"type":"VEC2"
		},
		{
			"bufferView":11,
			"componentType":5126,
			"count":192,
			"max":[
				1,
				1,
				1
			],
			"min":[
				-1,
				-1,
				-1
			],
			"type":"VEC3"
		},
		{
			"bufferView":12,
			"componentType":5126,
			"count":192,
			"type":"VEC3"
		},
		{
			"bufferView":13,
			"componentType":5126,
			"count":192,
			"type":"VEC2"
		}
	],
	"bufferViews":[
		{
			"buffer":0,
			"byteLength":7488,
			"byteOffset":0,
			"target":34962
		},
		{
			"buffer":0,
			"byteLength":7488,
			"byteOffset":7488,
			"target":34962
		},
		{
			"buffer":0,
			"byteLength":4992,
			"byteOffset":14976,
			"target":34962
		},
		{
			"buffer":0,
			"byteLength":5556,
			"byteOffset":19968,
			"target":34963
		},
		{
			"buffer":0,
			"byteLength":2304,
			"byteOffset":25524,
			"target":34962
		},
		{
			"buffer":0,
			"byteLength":2304,
			"byteOffset":27828,
			"target":34962
		},
		{
			"buffer":0,
			"byteLength":1536,
			"byteOffset":30132,
			"target":34962
		},
		{
			"buffer":0,
			"byteLength":744,
			"byteOffset":31668,
			"target":34963
		},
		{
			"buffer":0,
			"byteLength":2304,
			"byteOffset":32412,
			"target":34962
		},
		{
			"buffer":0,
			"byteLength":2304,
			"byteOffset":34716,
			"target":34962
		},
		{
			"buffer":0,
			"byteLength":1536,
			"byteOffset":37020,
			"target":34962
		},
		{
			"buffer":0,
			"byteLength":2304,
			"byteOffset":38556,
			"target":34962
		},
		{
			"buffer":0,
			"byteLength":2304,
			"byteOffset":40860,
			"target":34962
		},
		{
			"buffer":0,
			"byteLength":1536,
			"byteOffset":43164,
			"target":34962
		}
	],
	"buffers":[
		{
			"byteLength":44700,
			"uri":"diffuser.bin"
		}
	]
}
