{
	"asset":{
		"generator":"Khronos glTF Blender I/O v5.0.21",
		"version":"2.0"
	},
	"scene":0,
	"scenes":[
		{
			"name":"Scene",
			"nodes":[
				0,
				1,
				2,
				3
			]
		}
	],
	"nodes":[
		{
			"mesh":0,
			"name":"\u7acb\u65b9\u4f53",
			"rotation":[
				0,
				1,
				0,
				0
			],
			"scale":[
				-1.0340598821640015,
				-0.08979565650224686,
				-1.0340598821640015
			],
			"translation":[
				-0.340787410736084,
				0.027822017669677734,
				-5.836946487426758
			]
		},
		{
			"mesh":1,
			"name":"\u7acb\u65b9\u4f53.001",
			"rotation":[
				0,
				1,
				0,
				0
			],
			"scale":[
				-1.0340598821640015,
				-0.08979565650224686,
				-1.0340598821640015
			],
			"translation":[
				-0.340787410736084,
				-1.3141387701034546,
				-5.836946487426758
			]
		},
		{
			"mesh":2,
			"name":"\u7acb\u65b9\u4f53.002",
			"rotation":[
				0,
				1,
				0,
				0
			],
			"scale":[
				-1.0340598821640015,
				-0.08979565650224686,
				-1.0340598821640015
			],
			"translation":[
				-0.340787410736084,
				0.6295503377914429,
				-5.836946487426758
			]
		},
		{
			"mesh":3,
			"name":"\u7acb\u65b9\u4f53.003",
			"rotation":[
				0,
				1,
				0,
				0
			],
			"scale":[
				-1.0340598821640015,
				-0.08979565650224686,
				-1.0340598821640015
			],
			"translation":[
				-0.340787410736084,
				-2.647228240966797,
				-5.836946487426758
			]
		}
	],
	"materials":[
		{
			"doubleSided":true,
			"name":"\u30de\u30c6\u30ea\u30a2\u30eb",
			"pbrMetallicRoughness":{
				"baseColorTexture":{
					"index":0
				},
				"metallicFactor":0,
				"roughnessFactor":0.5
			}
		},
		{
			"doubleSided":true,
			"name":"\u30de\u30c6\u30ea\u30a2\u30eb.001",
			"pbrMetallicRoughness":{
				"baseColorFactor":[
					0.800000011920929,
					0.800000011920929,
					0.800000011920929,
					1
				],
				"metallicFactor":0.4953271150588989,
				"roughnessFactor":0.7336448431015015
			}
		},
		{
			"doubleSided":true,
			"name":"\u30de\u30c6\u30ea\u30a2\u30eb.002",
			"pbrMetallicRoughness":{
				"baseColorTexture":{
					"index":1
				},
				"metallicFactor":0,
				"roughnessFactor":0.5
			}
		},
		{
			"doubleSided":true,
			"name":"\u30de\u30c6\u30ea\u30a2\u30eb.003",
			"pbrMetallicRoughness":{
				"baseColorFactor":[
					0.800000011920929,
					0.800000011920929,
					0.800000011920929,
					1
				],
				"metallicFactor":0.4953271150588989,
				"roughnessFactor":0.7336448431015015
			}
		}
	],
	"meshes":[
		{
			"name":"\u7acb\u65b9\u4f53",
			"primitives":[
				{
					"attributes":{
						"POSITION":0,
						"NORMAL":1,
						"TEXCOORD_0":2
					},
					"indices":3,
					"material":0
				},
				{
					"attributes":{
						"POSITION":4,
						"NORMAL":5,
						"TEXCOORD_0":6
					},
					"indices":7,
					"material":1
				}
			]
		},
		{
			"name":"\u7acb\u65b9\u4f53.002",
			"primitives":[
				{
					"attributes":{
						"POSITION":8,
						"NORMAL":9,
						"TEXCOORD_0":10
					},
					"indices":3,
					"material":0
				},
				{
					"attributes":{
						"POSITION":11,
						"NORMAL":12,
						"TEXCOORD_0":13
					},
					"indices":7,
					"material":1
				}
			]
		},
		{
			"name":"\u7acb\u65b9\u4f53.003",
			"primitives":[
				{
					"attributes":{
						"POSITION":14,
						"NORMAL":15,
						"TEXCOORD_0":16
					},
					"indices":17,
					"material":2
				},
				{
					"attributes":{
						"POSITION":18,
						"NORMAL":19,
						"TEXCOORD_0":20
					},
					"indices":21,
					"material":3
				}
			]
		},
		{
			"name":"\u7acb\u65b9\u4f53.004",
			"primitives":[
				{
					"attributes":{
						"POSITION":22,
						"NORMAL":23,
						"TEXCOORD_0":24
					},
					"indices":3,
					"material":0
				},
				{
					"attributes":{
						"POSITION":25,
						"NORMAL":26,
						"TEXCOORD_0":27
					},
					"indices":7,
					"material":1
				}
			]
		}
	],
	"textures":[
		{
			"sampler":0,
			"source":0
		},
		{
			"sampler":0,
			"source":0
		}
	],
	"images":[
		{
			"mimeType":"image/jpeg",
			"name":"oak_veneer_01_diff_4k",
			"uri":"oak_veneer_01_diff_4k.jpg"
		}
	],
	"accessors":[
		{
			"bufferView":0,
			"componentType":5126,
			"count":140,
			"max":[
				1.0706896781921387,
				13.193880081176758,
				1.073118805885315
			],
			"min":[
				-1.0464868545532227,
				-1.8390616178512573,
				-1.0728375911712646
			],
			"type":"VEC3"
		},
		{
			"bufferView":1,
			"componentType":5126,
			"count":140,
			"type":"VEC3"
		},
		{
			"bufferView":2,
			"componentType":5126,
			"count":140,
			"type":"VEC2"
		},
		{
			"bufferView":3,
			"componentType":5123,
			"count":276,
			"type":"SCALAR"
		},
		{
			"bufferView":4,
			"componentType":5126,
			"count":116,
			"max":[
				1.0706896781921387,
				13.193880081176758,
				1.073118805885315
			],
			"min":[
				-1.0464868545532227,
				-1.8390616178512573,
				-1.0728375911712646
			],
			"type":"VEC3"
		},
		{
			"bufferView":5,
			"componentType":5126,
			"count":116,
			"type":"VEC3"
		},
		{
			"bufferView":6,
			"componentType":5126,
			"count":116,
			"type":"VEC2"
		},
		{
			"bufferView":7,
			"componentType":5123,
			"count":276,
			"type":"SCALAR"
		},
		{
			"bufferView":8,
			"componentType":5126,
			"count":140,
			"max":[
				1.0706896781921387,
				13.193880081176758,
				1.073118805885315
			],
			"min":[
				-1.0464868545532227,
				-1.8390616178512573,
				-1.0728375911712646
			],
			"type":"VEC3"
		},
		{
			"bufferView":9,
			"componentType":5126,
			"count":140,
			"type":"VEC3"
		},
		{
			"bufferView":10,
			"componentType":5126,
			"count":140,
			"type":"VEC2"
		},
		{
			"bufferView":11,
			"componentType":5126,
			"count":116,
			"max":[
				1.0706896781921387,
				13.193880081176758,
				1.073118805885315
			],
			"min":[
				-1.0464868545532227,
				-1.8390616178512573,
				-1.0728375911712646
			],
			"type":"VEC3"
		},
		{
			"bufferView":12,
			"componentType":5126,
			"count":116,
			"type":"VEC3"
		},
		{
			"bufferView":13,
			"componentType":5126,
			"count":116,
			"type":"VEC2"
		},
		{
			"bufferView":14,
			"componentType":5126,
			"count":140,
			"max":[
				1.0706896781921387,
				4.876824378967285,
				1.073118805885315
			],
			"min":[
				-1.0464868545532227,
				-1.8390616178512573,
				-1.0728375911712646
			],
			"type":"VEC3"
		},
		{
			"bufferView":15,
			"componentType":5126,
			"count":140,
			"type":"VEC3"
		},
		{
			"bufferView":16,
			"componentType":5126,
			"count":140,
			"type":"VEC2"
		},
		{
			"bufferView":17,
			"componentType":5123,
			"count":264,
			"type":"SCALAR"
		},
		{
			"bufferView":18,
			"componentType":5126,
			"count":121,
			"max":[
				1.0706896781921387,
				4.876824378967285,
				1.073118805885315
			],
			"min":[
				-1.0464868545532227,
				-1.8390616178512573,
				-1.0728375911712646
			],
			"type":"VEC3"
		},
		{
			"bufferView":19,
			"componentType":5126,
			"count":121,
			"type":"VEC3"
		},
		{
			"bufferView":20,
			"componentType":5126,
			"count":121,
			"type":"VEC2"
		},
		{
			"bufferView":21,
			"componentType":5123,
			"count":306,
			"type":"SCALAR"
		},
		{
			"bufferView":22,
			"componentType":5126,
			"count":140,
			"max":[
				1.0706896781921387,
				3.3775033950805664,
				1.073118805885315
			],
			"min":[
				-1.0464868545532227,
				-1.8390616178512573,
				-1.0728375911712646
			],
			"type":"VEC3"
		},
		{
			"bufferView":23,
			"componentType":5126,
			"count":140,
			"type":"VEC3"
		},
		{
			"bufferView":24,
			"componentType":5126,
			"count":140,
			"type":"VEC2"
		},
		{
			"bufferView":25,
			"componentType":5126,
			"count":116,
			"max":[
				1.0706896781921387,
				3.3775033950805664,
				1.073118805885315
			],
			"min":[
				-1.0464868545532227,
				-1.8390616178512573,
				-1.0728375911712646
			],
			"type":"VEC3"
		},
		{
			"bufferView":26,
			"componentType":5126,
			"count":116,
			"type":"VEC3"
		},
		{
			"bufferView":27,
			"componentType":5126,
			"count":116,
			"type":"VEC2"
		}
	],
	"bufferViews":[
		{
			"buffer":0,
			"byteLength":1680,
			"byteOffset":0,
			"target":34962
		},
		{
			"buffer":0,
			"byteLength":1680,
			"byteOffset":1680,
			"target":34962
		},
		{
			"buffer":0,
			"byteLength":1120,
			"byteOffset":3360,
			"target":34962
		},
		{
			"buffer":0,
			"byteLength":552,
			"byteOffset":4480,
			"target":34963
		},
		{
			"buffer":0,
			"byteLength":1392,
			"byteOffset":5032,
			"target":34962
		},
		{
			"buffer":0,
			"byteLength":1392,
			"byteOffset":6424,
			"target":34962
		},
		{
			"buffer":0,
			"byteLength":928,
			"byteOffset":7816,
			"target":34962
		},
		{
			"buffer":0,
			"byteLength":552,
			"byteOffset":8744,
			"target":34963
		},
		{
			"buffer":0,
			"byteLength":1680,
			"byteOffset":9296,
			"target":34962
		},
		{
			"buffer":0,
			"byteLength":1680,
			"byteOffset":10976,
			"target":34962
		},
		{
			"buffer":0,
			"byteLength":1120,
			"byteOffset":12656,
			"target":34962
		},
		{
			"buffer":0,
			"byteLength":1392,
			"byteOffset":13776,
			"target":34962
		},
		{
			"buffer":0,
			"byteLength":1392,
			"byteOffset":15168,
			"target":34962
		},
		{
			"buffer":0,
			"byteLength":928,
			"byteOffset":16560,
			"target":34962
		},
		{
			"buffer":0,
			"byteLength":1680,
			"byteOffset":17488,
			"target":34962
		},
		{
			"buffer":0,
			"byteLength":1680,
			"byteOffset":19168,
			"target":34962
		},
		{
			"buffer":0,
			"byteLength":1120,
			"byteOffset":20848,
			"target":34962
		},
		{
			"buffer":0,
			"byteLength":528,
			"byteOffset":21968,
			"target":34963
		},
		{
			"buffer":0,
			"byteLength":1452,
			"byteOffset":22496,
			"target":34962
		},
		{
			"buffer":0,
			"byteLength":1452,
			"byteOffset":23948,
			"target":34962
		},
		{
			"buffer":0,
			"byteLength":968,
			"byteOffset":25400,
			"target":34962
		},
		{
			"buffer":0,
			"byteLength":612,
			"byteOffset":26368,
			"target":34963
		},
		{
			"buffer":0,
			"byteLength":1680,
			"byteOffset":26980,
			"target":34962
		},
		{
			"buffer":0,
			"byteLength":1680,
			"byteOffset":28660,
			"target":34962
		},
		{
			"buffer":0,
			"byteLength":1120,
			"byteOffset":30340,
			"target":34962
		},
		{
			"buffer":0,
			"byteLength":1392,
			"byteOffset":31460,
			"target":34962
		},
		{
			"buffer":0,
			"byteLength":1392,
			"byteOffset":32852,
			"target":34962
		},
		{
			"buffer":0,
			"byteLength":928,
			"byteOffset":34244,
			"target":34962
		}
	],
	"samplers":[
		{
			"magFilter":9729,
			"minFilter":9987
		}
	],
	"buffers":[
		{
			"byteLength":35172,
			"uri":"shelf.bin"
		}
	]
}
