{
	"asset":{
		"generator":"Khronos glTF Blender I/O v5.0.21",
		"version":"2.0"
	},
	"scene":0,
	"scenes":[
		{
			"name":"Scene",
			"nodes":[
				0,
				1,
				2,
				3,
				4,
				5
			]
		}
	],
	"nodes":[
		{
			"mesh":0,
			"name":"\u7403",
			"scale":[
				0.7365857362747192,
				0.7365857362747192,
				0.7365857362747192
			],
			"translation":[
				-0.3895420432090759,
				0.9658474326133728,
				-2.719336748123169
			]
		},
		{
			"mesh":1,
			"name":"\u5186",
			"scale":[
				1.6574121713638306,
				1.6574121713638306,
				1.6574121713638306
			],
			"translation":[
				0,
				0,
				-2.8787682056427
			]
		},
		{
			"mesh":2,
			"name":"ICO\u7403",
			"rotation":[
				-0.10745865851640701,
				-0.1742042601108551,
				0.5138893723487854,
				0.8330805897712708
			],
			"scale":[
				0.3441465198993683,
				0.34414657950401306,
				0.2780926525592804
			],
			"translation":[
				0.24177780747413635,
				0.4465159773826599,
				-2.2651455402374268
			]
		},
		{
			"mesh":3,
			"name":"ICO\u7403.001",
			"rotation":[
				0.2218400537967682,
				0.35963112115859985,
				0.4758327305316925,
				0.7713857293128967
			],
			"scale":[
				0.3441464900970459,
				0.34414660930633545,
				0.2780926525592804
			],
			"translation":[
				-0.15160945057868958,
				0.37782251834869385,
				-3.4303958415985107
			]
		},
		{
			"mesh":4,
			"name":"ICO\u7403.002",
			"rotation":[
				-0.19259698688983917,
				0.47662222385406494,
				-0.008375254459679127,
				0.8577106595039368
			],
			"scale":[
				0.18330761790275574,
				0.18330763280391693,
				0.18330763280391693
			],
			"translation":[
				0.06704705208539963,
				0.4711258113384247,
				-3.0938220024108887
			]
		},
		{
			"mesh":5,
			"name":"ICO\u7403.003",
			"rotation":[
				-0.10580306500196457,
				0.9807916879653931,
				0.16115044057369232,
				0.02973133884370327
			],
			"scale":[
				0.18330763280391693,
				0.18330763280391693,
				0.18330763280391693
			],
			"translation":[
				0.22637829184532166,
				0.48974448442459106,
				-2.6604244709014893
			]
		}
	],
	"materials":[
		{
			"doubleSided":true,
			"name":"\u30de\u30c6\u30ea\u30a2\u30eb.003",
			"pbrMetallicRoughness":{
				"baseColorTexture":{
					"index":0
				},
				"metallicFactor":0,
				"roughnessFactor":0.5
			}
		},
		{
			"doubleSided":true,
			"name":"\u30de\u30c6\u30ea\u30a2\u30eb.001",
			"pbrMetallicRoughness":{
				"baseColorFactor":[
					0.5576774477958679,
					0.4613666236400604,
					0.05333797633647919,
					1
				],
				"metallicFactor":0,
				"roughnessFactor":0.5
			}
		},
		{
			"doubleSided":true,
			"name":"\u30de\u30c6\u30ea\u30a2\u30eb.002",
			"pbrMetallicRoughness":{
				"baseColorFactor":[
					0.8000156879425049,
					0.038985442370176315,
					0.038985442370176315,
					1
				],
				"metallicFactor":0,
				"roughnessFactor":0.5
			}
		},
		{
			"doubleSided":true,
			"name":"\u30de\u30c6\u30ea\u30a2\u30eb",
			"pbrMetallicRoughness":{
				"baseColorFactor":[
					0.9911020398139954,
					0.2345506101846695,
					0.3515326976776123,
					1
				],
				"metallicFactor":0,
				"roughnessFactor":0.5
			}
		}
	],
	"meshes":[
		{
			"name":"\u7403",
			"primitives":[
				{
					"attributes":{
						"POSITION":0,
						"NORMAL":1,
						"TEXCOORD_0":2
					},
					"indices":3,
					"material":0
				}
			]
		},
		{
			"name":"\u5186",
			"primitives":[
				{
					"attributes":{
						"POSITION":4,
						"NORMAL":5,
						"TEXCOORD_0":6
					},
					"indices":7,
					"material":1
				}
			]
		},
		{
			"name":"ICO\u7403",
			"primitives":[
				{
					"attributes":{
						"POSITION":8,
						"NORMAL":9,
						"TEXCOORD_0":10
					},
					"indices":11,
					"material":2
				}
			]
		},
		{
			"name":"ICO\u7403.001",
			"primitives":[
				{
					"attributes":{
						"POSITION":12,
						"NORMAL":13,
						"TEXCOORD_0":14
					},
					"indices":11,
					"material":2
				}
			]
		},
		{
			"name":"ICO\u7403.002",
			"primitives":[
				{
					"attributes":{
						"POSITION":15,
						"NORMAL":16,
						"TEXCOORD_0":17
					},
					"indices":18,
					"material":3
				}
			]
		},
		{
			"name":"ICO\u7403.003",
			"primitives":[
				{
					"attributes":{
						"POSITION":19,
						"NORMAL":20,
						"TEXCOORD_0":21
					},
					"indices":18,
					"material":3
				}
			]
		}
	],
	"textures":[
		{
			"sampler":0,
			"source":0
		}
	],
	"images":[
		{
			"mimeType":"image/jpeg",
			"name":"IMG_1516",
			"uri":"IMG_1516.jpg"
		}
	],
	"accessors":[
		{
			"bufferView":0,
			"componentType":5126,
			"count":497,
			"max":[
				0.9999997019767761,
				1,
				0.9999993443489075
			],
			"min":[
				-0.9999990463256836,
				-1,
				-1
			],
			"type":"VEC3"
		},
		{
			"bufferView":1,
			"componentType":5126,
			"count":497,
			"type":"VEC3"
		},
		{
			"bufferView":2,
			"componentType":5126,
			"count":497,
			"type":"VEC2"
		},
		{
			"bufferView":3,
			"componentType":5123,
			"count":2880,
			"type":"SCALAR"
		},
		{
			"bufferView":4,
			"componentType":5126,
			"count":5042,
			"max":[
				0.79838627576828,
				0.2092783898115158,
				0.8334652185440063
			],
			"min":[
				-0.79838627576828,
				0.000813554332125932,
				-0.6982031464576721
			],
			"type":"VEC3"
		},
		{
			"bufferView":5,
			"componentType":5126,
			"count":5042,
			"type":"VEC3"
		},
		{
			"bufferView":6,
			"componentType":5126,
			"count":5042,
			"type":"VEC2"
		},
		{
			"bufferView":7,
			"componentType":5123,
			"count":30240,
			"type":"SCALAR"
		},
		{
			"bufferView":8,
			"componentType":5126,
			"count":37,
			"max":[
				1.7173547744750977,
				0.9999998807907104,
				1.2015050649642944
			],
			"min":[
				-0.7523582577705383,
				0,
				-1.2015050649642944
			],
			"type":"VEC3"
		},
		{
			"bufferView":9,
			"componentType":5126,
			"count":37,
			"type":"VEC3"
		},
		{
			"bufferView":10,
			"componentType":5126,
			"count":37,
			"type":"VEC2"
		},
		{
			"bufferView":11,
			"componentType":5123,
			"count":144,
			"type":"SCALAR"
		},
		{
			"bufferView":12,
			"componentType":5126,
			"count":37,
			"max":[
				1.7173547744750977,
				0.9999998807907104,
				1.2015050649642944
			],
			"min":[
				-0.7523582577705383,
				0,
				-1.2015050649642944
			],
			"type":"VEC3"
		},
		{
			"bufferView":13,
			"componentType":5126,
			"count":37,
			"type":"VEC3"
		},
		{
			"bufferView":14,
			"componentType":5126,
			"count":37,
			"type":"VEC2"
		},
		{
			"bufferView":15,
			"componentType":5126,
			"count":63,
			"max":[
				0.9510578513145447,
				1.2178829908370972,
				0.9999999403953552
			],
			"min":[
				-0.9510578513145447,
				-1,
				-1.070906639099121
			],
			"type":"VEC3"
		},
		{
			"bufferView":16,
			"componentType":5126,
			"count":63,
			"type":"VEC3"
		},
		{
			"bufferView":17,
			"componentType":5126,
			"count":63,
			"type":"VEC2"
		},
		{
			"bufferView":18,
			"componentType":5123,
			"count":240,
			"type":"SCALAR"
		},
		{
			"bufferView":19,
			"componentType":5126,
			"count":63,
			"max":[
				0.9510578513145447,
				1.2178829908370972,
				0.9999999403953552
			],
			"min":[
				-0.9510578513145447,
				-1,
				-1.070906639099121
			],
			"type":"VEC3"
		},
		{
			"bufferView":20,
			"componentType":5126,
			"count":63,
			"type":"VEC3"
		},
		{
			"bufferView":21,
			"componentType":5126,
			"count":63,
			"type":"VEC2"
		}
	],
	"bufferViews":[
		{
			"buffer":0,
			"byteLength":5964,
			"byteOffset":0,
			"target":34962
		},
		{
			"buffer":0,
			"byteLength":5964,
			"byteOffset":5964,
			"target":34962
		},
		{
			"buffer":0,
			"byteLength":3976,
			"byteOffset":11928,
			"target":34962
		},
		{
			"buffer":0,
			"byteLength":5760,
			"byteOffset":15904,
			"target":34963
		},
		{
			"buffer":0,
			"byteLength":60504,
			"byteOffset":21664,
			"target":34962
		},
		{
			"buffer":0,
			"byteLength":60504,
			"byteOffset":82168,
			"target":34962
		},
		{
			"buffer":0,
			"byteLength":40336,
			"byteOffset":142672,
			"target":34962
		},
		{
			"buffer":0,
			"byteLength":60480,
			"byteOffset":183008,
			"target":34963
		},
		{
			"buffer":0,
			"byteLength":444,
			"byteOffset":243488,
			"target":34962
		},
		{
			"buffer":0,
			"byteLength":444,
			"byteOffset":243932,
			"target":34962
		},
		{
			"buffer":0,
			"byteLength":296,
			"byteOffset":244376,
			"target":34962
		},
		{
			"buffer":0,
			"byteLength":288,
			"byteOffset":244672,
			"target":34963
		},
		{
			"buffer":0,
			"byteLength":444,
			"byteOffset":244960,
			"target":34962
		},
		{
			"buffer":0,
			"byteLength":444,
			"byteOffset":245404,
			"target":34962
		},
		{
			"buffer":0,
			"byteLength":296,
			"byteOffset":245848,
			"target":34962
		},
		{
			"buffer":0,
			"byteLength":756,
			"byteOffset":246144,
			"target":34962
		},
		{
			"buffer":0,
			"byteLength":756,
			"byteOffset":246900,
			"target":34962
		},
		{
			"buffer":0,
			"byteLength":504,
			"byteOffset":247656,
			"target":34962
		},
		{
			"buffer":0,
			"byteLength":480,
			"byteOffset":248160,
			"target":34963
		},
		{
			"buffer":0,
			"byteLength":756,
			"byteOffset":248640,
			"target":34962
		},
		{
			"buffer":0,
			"byteLength":756,
			"byteOffset":249396,
			"target":34962
		},
		{
			"buffer":0,
			"byteLength":504,
			"byteOffset":250152,
			"target":34962
		}
	],
	"samplers":[
		{
			"magFilter":9729,
			"minFilter":9987
		}
	],
	"buffers":[
		{
			"byteLength":250656,
			"uri":"kirby.bin"
		}
	]
}
